<svg xmlns="http://www.w3.org/2000/svg" width="75" height="75" viewBox="0 0 75 75">
  <g id="Group_50737" data-name="Group 50737" transform="translate(-903 -189)">
    <g id="Group_50736" data-name="Group 50736" transform="translate(73)">
      <g id="Group_50152" data-name="Group 50152" transform="translate(775.014 -33.986)">
        <rect id="Rectangle_5030" data-name="Rectangle 5030" width="75" height="75" rx="15" transform="translate(54.986 222.986)" fill="#32a4ff"/>
      </g>
    </g>
    <g id="Wallet" transform="translate(915.24 208.929)">
      <path id="Path_69589" data-name="Path 69589" d="M21.48,21.65v4.93a4.658,4.658,0,0,1-4.93,4.93H6.69a4.658,4.658,0,0,1-4.93-4.93V21.65a4.589,4.589,0,0,1,4.131-4.871,5.248,5.248,0,0,1,.8-.059h9.86a4.509,4.509,0,0,1,.74.049A4.6,4.6,0,0,1,21.48,21.65Z" transform="translate(0 1.793)" fill="none" stroke="#fff" stroke-linecap="round" stroke-linejoin="round" stroke-width="2.2"/>
      <path id="Path_69590" data-name="Path 69590" d="M16.847,17.3a4.509,4.509,0,0,0-.74-.049H6.247a5.248,5.248,0,0,0-.8.059,3,3,0,0,1,.572-.769l3.2-3.214a3.476,3.476,0,0,1,4.891,0l1.726,1.745A3.327,3.327,0,0,1,16.847,17.3Z" transform="translate(0.444 1.263)" fill="none" stroke="#fff" stroke-linecap="round" stroke-linejoin="round" stroke-width="2.2"/>
      <path id="Path_69591" data-name="Path 69591" d="M19.89,21.56H16.932a1.972,1.972,0,1,0,0,3.944H19.89" transform="translate(1.59 2.376)" fill="none" stroke="#fff" stroke-linecap="round" stroke-linejoin="round" stroke-width="2.2"/>
      <path id="Path_69592" data-name="Path 69592" d="M34.865,1.9l8.874,3.55a1.068,1.068,0,0,1,.621.917V9.639a.989.989,0,0,1-.986.986H25.626a.989.989,0,0,1-.986-.986V6.365a1.068,1.068,0,0,1,.621-.917L34.135,1.9A1.154,1.154,0,0,1,34.865,1.9Z" transform="translate(2.756)" fill="none" stroke="#fff" stroke-linecap="round" stroke-linejoin="round" stroke-miterlimit="10" stroke-width="2.2"/>
      <path id="Path_69593" data-name="Path 69593" d="M44.36,19.784H24.64V16.826a.989.989,0,0,1,.986-.986H43.374a.989.989,0,0,1,.986.986Z" transform="translate(2.756 1.687)" fill="none" stroke="#fff" stroke-linecap="round" stroke-linejoin="round" stroke-miterlimit="10" stroke-width="2.2"/>
      <path id="Path_69594" data-name="Path 69594" d="M26.4,16.582V9.68" transform="translate(2.969 0.945)" fill="none" stroke="#fff" stroke-linecap="round" stroke-linejoin="round" stroke-miterlimit="10" stroke-width="2.2"/>
      <path id="Path_69595" data-name="Path 69595" d="M29.92,16.582V9.68" transform="translate(3.393 0.945)" fill="none" stroke="#fff" stroke-linecap="round" stroke-linejoin="round" stroke-miterlimit="10" stroke-width="2.2"/>
      <path id="Path_69596" data-name="Path 69596" d="M33.44,16.582V9.68" transform="translate(3.817 0.945)" fill="none" stroke="#fff" stroke-linecap="round" stroke-linejoin="round" stroke-miterlimit="10" stroke-width="2.2"/>
      <path id="Path_69597" data-name="Path 69597" d="M36.96,16.582V9.68" transform="translate(4.241 0.945)" fill="none" stroke="#fff" stroke-linecap="round" stroke-linejoin="round" stroke-miterlimit="10" stroke-width="2.2"/>
      <path id="Path_69598" data-name="Path 69598" d="M40.48,16.582V9.68" transform="translate(4.665 0.945)" fill="none" stroke="#fff" stroke-linecap="round" stroke-linejoin="round" stroke-miterlimit="10" stroke-width="2.2"/>
      <path id="Path_69599" data-name="Path 69599" d="M23.76,19.36H45.452" transform="translate(2.65 2.111)" fill="none" stroke="#fff" stroke-linecap="round" stroke-linejoin="round" stroke-miterlimit="10" stroke-width="2.2"/>
      <path id="Path_69600" data-name="Path 69600" d="M33.6,7.8A1.479,1.479,0,1,0,32.12,6.319,1.479,1.479,0,0,0,33.6,7.8Z" transform="translate(3.658 0.361)" fill="none" stroke="#fff" stroke-linecap="round" stroke-linejoin="round" stroke-miterlimit="10" stroke-width="2.2"/>
      <path id="Path_69601" data-name="Path 69601" d="M22.311,10.476a.392.392,0,0,0-.392-.392h-3.53a.392.392,0,0,0,0,.784h3.137v3.137a.392.392,0,1,0,.784,0Zm-3.5,3.658L22.2,10.753l-.555-.555-.868.868L18.261,13.58Z" transform="translate(1.956 0.993)" fill="#fff"/>
    </g>
  </g>
</svg>
