<svg xmlns="http://www.w3.org/2000/svg" xmlns:xlink="http://www.w3.org/1999/xlink" width="75" height="75" viewBox="0 0 75 75">
  <defs>
    <clipPath id="clip-path">
      <rect id="Rectangle_5180" data-name="Rectangle 5180" width="20.17" height="20.17" fill="#fff"/>
    </clipPath>
  </defs>
  <g id="W2W" transform="translate(-1075 -189)">
    <g id="Group_50737" data-name="Group 50737" transform="translate(245)">
      <g id="Group_50152" data-name="Group 50152" transform="translate(775.014 -33.986)">
        <rect id="Rectangle_5030" data-name="Rectangle 5030" width="75" height="75" rx="15" transform="translate(54.986 222.986)" fill="#32a4ff"/>
      </g>
    </g>
    <g id="Group_50741" data-name="Group 50741" transform="translate(840.218 -116.627)">
      <g id="corner-up-right" transform="translate(253.693 323.886)" clip-path="url(#clip-path)">
        <path id="Path_69620" data-name="Path 69620" d="M7.807,11.167l4.2-4.2-4.2-4.2" transform="translate(4.801 0.6)" fill="none" stroke="#fff" stroke-linecap="round" stroke-linejoin="round" stroke-width="2.4"/>
        <path id="Path_69621" data-name="Path 69621" d="M2.765,14.3V8.417A3.361,3.361,0,0,1,6.126,5.056H16.215" transform="translate(0.596 2.51)" fill="none" stroke="#fff" stroke-linecap="round" stroke-linejoin="round" stroke-width="2.4"/>
      </g>
      <g id="wallet-2" transform="translate(245.782 345.387)">
        <path id="Path_69622" data-name="Path 69622" d="M23.221,11.214v2.552a1.267,1.267,0,0,1-1.239,1.266H19.555a2.641,2.641,0,0,1-2.674-2.322A2.552,2.552,0,0,1,19.413,9.95h2.575a1.266,1.266,0,0,1,1.233,1.264Z" transform="translate(1.559 -1.971)" fill="#fff"/>
        <path id="Path_69623" data-name="Path 69623" d="M24.881,18.419H23.114a4.515,4.515,0,0,1-4.538-4.025,4.357,4.357,0,0,1,1.3-3.493A4.264,4.264,0,0,1,22.96,9.634h1.919a.608.608,0,0,0,.618-.656,5.7,5.7,0,0,0-5.226-5.412,5.663,5.663,0,0,0-.929-.061H8.2a6.592,6.592,0,0,0-1,.074,5.764,5.764,0,0,0-5.19,6.111v8.669A6.2,6.2,0,0,0,8.2,24.551H19.344A5.8,5.8,0,0,0,25.5,19.077a.608.608,0,0,0-.618-.659Zm-9.251-7.177H8.2a.929.929,0,0,1,0-1.857h7.43a.929.929,0,0,1,0,1.857Z" transform="translate(-1.994 -3.504)" fill="#fff"/>
      </g>
      <g id="wallet-2-2" data-name="wallet-2" transform="translate(274.296 320.627)">
        <path id="Path_69622-2" data-name="Path 69622" d="M23.221,11.214v2.552a1.267,1.267,0,0,1-1.239,1.266H19.555a2.641,2.641,0,0,1-2.674-2.322A2.552,2.552,0,0,1,19.413,9.95h2.575a1.266,1.266,0,0,1,1.233,1.264Z" transform="translate(1.559 -1.971)" fill="#fff"/>
        <path id="Path_69623-2" data-name="Path 69623" d="M24.881,18.419H23.114a4.515,4.515,0,0,1-4.538-4.025,4.357,4.357,0,0,1,1.3-3.493A4.264,4.264,0,0,1,22.96,9.634h1.919a.608.608,0,0,0,.618-.656,5.7,5.7,0,0,0-5.226-5.412,5.663,5.663,0,0,0-.929-.061H8.2a6.592,6.592,0,0,0-1,.074,5.764,5.764,0,0,0-5.19,6.111v8.669A6.2,6.2,0,0,0,8.2,24.551H19.344A5.8,5.8,0,0,0,25.5,19.077a.608.608,0,0,0-.618-.659Zm-9.251-7.177H8.2a.929.929,0,0,1,0-1.857h7.43a.929.929,0,0,1,0,1.857Z" transform="translate(-1.994 -3.504)" fill="#fff"/>
      </g>
    </g>
  </g>
</svg>
