<svg xmlns="http://www.w3.org/2000/svg" width="257.54" height="35.222" viewBox="0 0 257.54 35.222">
  <g id="Group_49963" data-name="Group 49963" transform="translate(0.835 0.497)">
    <g id="Group_49962" data-name="Group 49962" transform="translate(0.001)">
      <path id="Path_68379" data-name="Path 68379" d="M168.489,169.194v12.351c0,.176,0,.351,0,.527-.02,1.3-.372,1.654-1.688,1.668-.761.007-1.523.015-2.283,0-1.119-.027-1.532-.441-1.534-1.56q-.012-6.322,0-12.644c0-2.459,0-4.917,0-7.376,0-1.276.406-1.675,1.683-1.682,1.23-.007,2.46.018,3.689-.009a1.94,1.94,0,0,1,1.861,1.046c3.035,4.968,6.1,9.917,9.164,14.871.151.244.318.479.522.786.2-.306.364-.539.513-.78q4.614-7.467,9.215-14.942a1.83,1.83,0,0,1,1.72-.977c1.317.013,2.635-.007,3.952.007,1.059.012,1.491.434,1.524,1.493.024.76.006,1.522.006,2.283v17.3c0,.263.011.528-.006.79a1.276,1.276,0,0,1-1.442,1.394c-.819.024-1.64.016-2.459,0-1.217-.016-1.629-.425-1.631-1.649q-.01-5.971,0-11.941v-.94l-.159-.065c-.168.247-.347.487-.5.741q-3.8,6.164-7.6,12.332c-.154.249-.307.5-.465.744a1.587,1.587,0,0,1-1.394.774q-1.273.01-2.547,0a1.609,1.609,0,0,1-1.441-.847c-.394-.651-.8-1.294-1.2-1.942q-3.383-5.494-6.765-10.988c-.167-.27-.345-.533-.517-.8l-.214.035" transform="translate(-63.526 -160.254)" fill="#41b6e6" stroke="rgba(0,0,0,0)" stroke-miterlimit="10" stroke-width="1"/>
      <path id="Path_68380" data-name="Path 68380" d="M308.948,165.211H307.87q-9.834,0-19.669,0a9.233,9.233,0,0,0-1.313.057,1.224,1.224,0,0,0-1.2,1.189,4.6,4.6,0,0,0,.031,1.217,1.378,1.378,0,0,0,1.129,1.2,7.13,7.13,0,0,0,1.3.2c4.5.259,9,.486,13.5.77a14.011,14.011,0,0,1,2.932.488,5.711,5.711,0,0,1,4.335,4.885,9.651,9.651,0,0,1-.166,4.095,5.27,5.27,0,0,1-3.641,3.832,10.95,10.95,0,0,1-3.466.46c-5.385.008-10.771-.023-16.156.014a5.09,5.09,0,0,1-5.266-4.517c-.014-.114,0-.23,0-.465.348-.016.682-.043,1.016-.044q9.746-.027,19.492-.054a11.621,11.621,0,0,0,1.662-.106,1.21,1.21,0,0,0,1.129-1.153,4.122,4.122,0,0,0,.031-.7c-.026-1.239-.492-1.775-1.732-1.861-2.686-.186-5.374-.337-8.061-.495-2.249-.132-4.5-.206-6.747-.4a12.071,12.071,0,0,1-2.979-.667,5.437,5.437,0,0,1-3.586-4.113,9.349,9.349,0,0,1,.076-4.688,5.014,5.014,0,0,1,3.365-3.647,9.77,9.77,0,0,1,2.913-.541q8.736-.078,17.472-.021a4.679,4.679,0,0,1,4.682,5.07" transform="translate(-109.208 -160.119)" fill="#41b6e6" stroke="rgba(0,0,0,0)" stroke-miterlimit="10" stroke-width="1"/>
      <path id="Path_68381" data-name="Path 68381" d="M5.506,179.148c0,1.1.007,2.038,0,2.972-.013,1.258-.366,1.61-1.637,1.623-.849.009-1.7.025-2.546-.013s-1.292-.453-1.3-1.241c-.025-2.748-.01-5.5-.01-8.347.4-.024.767-.065,1.131-.065q9.264-.006,18.529-.005a11.164,11.164,0,0,0,1.4-.067.952.952,0,0,0,.929-.891.813.813,0,0,0,.027-.173c0-2.076.034-4.153-.018-6.228-.02-.788-.393-1.06-1.188-1.128-.32-.027-.644-.016-.965-.016q-9.353,0-18.7,0H.006c0-.6,0-1.12,0-1.637,0-.732-.021-1.465.013-2.194a1.217,1.217,0,0,1,1.216-1.247,5.894,5.894,0,0,1,.614-.012q9.572,0,19.143,0a11.1,11.1,0,0,1,1.66.117c2.977.456,4.755,2.276,4.9,5.287a78.013,78.013,0,0,1,0,7.9c-.17,3.185-2.25,5.118-5.446,5.325-.5.032-.994.038-1.491.038q-6.981,0-13.962,0H5.506" transform="translate(0 -160.258)" fill="#41b6e6" stroke="rgba(0,0,0,0)" stroke-miterlimit="10" stroke-width="1"/>
      <path id="Path_68382" data-name="Path 68382" d="M238.763,166.666c-.242.357-.422.61-.591.871-3.2,4.967-6.426,9.925-9.6,14.913a2.378,2.378,0,0,1-2.37,1.29c-.816-.058-1.64,0-2.459-.016-1.419-.037-1.888-.893-1.116-2.1,1.85-2.882,3.727-5.745,5.593-8.616,2.44-3.754,4.9-7.5,7.308-11.271a2.333,2.333,0,0,1,2.369-1.292,12.517,12.517,0,0,0,2.018,0,2,2,0,0,1,1.955,1.061c2.4,3.744,4.833,7.47,7.253,11.2q2.795,4.308,5.588,8.619a5.408,5.408,0,0,1,.441.757,1.064,1.064,0,0,1-.83,1.579,6.98,6.98,0,0,1-1.137.057c-.732.008-1.465-.022-2.2.008a1.819,1.819,0,0,1-1.749-.941c-.714-1.141-1.471-2.255-2.2-3.386q-3.838-5.934-7.672-11.871c-.17-.262-.356-.513-.607-.871" transform="translate(-86.633 -160.242)" fill="#41b6e6" stroke="rgba(0,0,0,0)" stroke-miterlimit="10" stroke-width="1"/>
      <path id="Path_68383" data-name="Path 68383" d="M59.453,166.657c-.273.4-.473.676-.658.964-3.189,4.943-6.393,9.876-9.547,14.841a2.377,2.377,0,0,1-2.377,1.278c-.757-.056-1.522,0-2.283-.013-.589-.005-1.192.007-1.519-.636s.015-1.126.337-1.621q2.006-3.094,4.018-6.185c2.935-4.514,5.885-9.02,8.793-13.552a2.335,2.335,0,0,1,2.373-1.286,12.454,12.454,0,0,0,2.019,0,2,2,0,0,1,1.95,1.068c2.529,3.941,5.084,7.865,7.632,11.793q2.6,4.016,5.207,8.029a5.154,5.154,0,0,1,.443.756,1.042,1.042,0,0,1-.849,1.561c-1.31.081-2.63.051-3.944.012-.545-.016-.848-.466-1.125-.893-.7-1.079-1.412-2.153-2.111-3.235q-3.886-6.008-7.768-12.019c-.157-.244-.326-.481-.589-.868" transform="translate(-16.736 -160.241)" fill="#41b6e6" stroke="rgba(0,0,0,0)" stroke-miterlimit="10" stroke-width="1"/>
      <path id="Path_68384" data-name="Path 68384" d="M382.256,166.671c-.261.381-.446.636-.616.9-3.206,4.967-6.428,9.923-9.6,14.912a2.389,2.389,0,0,1-2.382,1.269c-.845-.056-1.7.014-2.546-.02-1.273-.051-1.712-.859-1.088-1.961.1-.178.218-.347.33-.518l12.632-19.433c.112-.172.22-.346.338-.514a1.8,1.8,0,0,1,1.635-.84c.848.029,1.7.034,2.547,0a1.9,1.9,0,0,1,1.807,1c1.3,2.049,2.635,4.082,3.957,6.119q4.443,6.85,8.886,13.7a5.319,5.319,0,0,1,.492.829,1.056,1.056,0,0,1-.87,1.559c-1.282.081-2.573.051-3.859.025a1.48,1.48,0,0,1-1.158-.848c-.721-1.1-1.444-2.2-2.159-3.309q-3.86-5.973-7.717-11.947c-.173-.268-.358-.527-.629-.926" transform="translate(-142.56 -160.253)" fill="#41b6e6" stroke="rgba(0,0,0,0)" stroke-miterlimit="10" stroke-width="1"/>
      <path id="Path_68385" data-name="Path 68385" d="M348.442,165.566v16.065c0,.264.009.527-.005.79-.046.834-.418,1.268-1.231,1.3-.993.042-1.991.04-2.983,0a1.191,1.191,0,0,1-1.211-1.157,6.065,6.065,0,0,1-.018-.789q0-7.549,0-15.1v-1.111H333.25a7.089,7.089,0,0,1-.79-.016,1.1,1.1,0,0,1-1.114-1.127c-.04-.934-.038-1.873,0-2.807a1.13,1.13,0,0,1,1.051-1.109,5.064,5.064,0,0,1,.788-.029q12.512,0,25.023,0c.2,0,.411-.009.614.008a1.283,1.283,0,0,1,1.326,1.345c.038.788.03,1.58,0,2.369a1.265,1.265,0,0,1-1.38,1.363c-.233.012-.468,0-.7,0h-9.632Z" transform="translate(-129.142 -160.257)" fill="#41b6e6" stroke="rgba(0,0,0,0)" stroke-miterlimit="10" stroke-width="1"/>
      <path id="Path_68386" data-name="Path 68386" d="M98.982,170.591c.305-.379.458-.594.636-.786,2.561-2.773,5.142-5.529,7.677-8.325a2.765,2.765,0,0,1,2.383-1.026c.845.056,1.7,0,2.545.02a2.123,2.123,0,0,1,.844.171.969.969,0,0,1,.439,1.469,4.613,4.613,0,0,1-.615.739c-3.5,3.776-7,7.559-10.523,11.313a2.22,2.22,0,0,0-.656,1.71c.04,1.959.014,3.92.013,5.881,0,.234.013.47-.01.7a1.229,1.229,0,0,1-1.3,1.259c-.935.037-1.874.038-2.809,0-.919-.036-1.317-.459-1.324-1.393-.016-2.194-.026-4.389.006-6.583a1.955,1.955,0,0,0-.589-1.471q-5.327-5.715-10.62-11.462c-.139-.15-.283-.3-.416-.452a1.1,1.1,0,0,1,.821-1.88c1.2-.015,2.4-.022,3.6.006a2.126,2.126,0,0,1,1.469.87q2.511,2.7,5.027,5.395c.957,1.028,1.918,2.053,2.867,3.088a8.073,8.073,0,0,1,.533.753" transform="translate(-32.872 -160.247)" fill="#41b6e6" stroke="rgba(0,0,0,0)" stroke-miterlimit="10" stroke-width="1"/>
    </g>
    <path id="Union_16" data-name="Union 16" d="M76.154,4.9c.141-.33.26-.608.4-.925a6.154,6.154,0,0,0,.626.135,11.574,11.574,0,0,0,1.388.118c.162,0,.321-.192.48-.295-.127-.166-.221-.412-.388-.482-.4-.169-.84-.238-1.254-.379-.881-.3-1.227-.748-1.193-1.507A1.557,1.557,0,0,1,77.574.085a4.279,4.279,0,0,1,2.658.379c-.2.375-.343.653-.493.941-.453-.083-.85-.172-1.251-.225a1.572,1.572,0,0,0-.6.026.434.434,0,0,0-.279.276.419.419,0,0,0,.161.357,3.342,3.342,0,0,0,.653.241c.36.116.733.2,1.084.343a1.321,1.321,0,0,1,.929,1.34,1.454,1.454,0,0,1-.983,1.42,3.58,3.58,0,0,1-1.267.233A4.737,4.737,0,0,1,76.154,4.9Zm8.036-.012c.161-.349.291-.626.417-.9.523.092.977.185,1.437.244a1.9,1.9,0,0,0,.694-.031c.139-.038.328-.192.342-.313a.483.483,0,0,0-.246-.394c-.518-.2-1.066-.313-1.581-.515A1.342,1.342,0,0,1,84.3,1.261,1.505,1.505,0,0,1,85.419.138a4.2,4.2,0,0,1,2.842.31l-.469.959c-.386-.077-.72-.171-1.061-.207a2.691,2.691,0,0,0-.866.021.317.317,0,0,0-.094.6,2.83,2.83,0,0,0,.649.251c.361.116.734.2,1.088.335a1.359,1.359,0,0,1,.982,1.313A1.5,1.5,0,0,1,87.458,5.2a3.8,3.8,0,0,1-1.245.213A4.526,4.526,0,0,1,84.19,4.893Zm-64.46.282A1.793,1.793,0,0,1,18.519,3.59C18.453,2.463,18.5,1.33,18.5.144h1.27c0,.564,0,1.107,0,1.65,0,.467-.011.935.031,1.4a.945.945,0,0,0,1.08.994.96.96,0,0,0,1.053-1.03c.042-.61.02-1.225.022-1.836,0-.374,0-.746,0-1.174h1.284A22.113,22.113,0,0,1,23.165,3.8a1.764,1.764,0,0,1-1.133,1.351,2.959,2.959,0,0,1-1.172.248A2.986,2.986,0,0,1,19.73,5.175Zm-11.2-2.5a2.788,2.788,0,0,1,5.572,0,2.734,2.734,0,0,1-2.745,2.714h-.044A2.736,2.736,0,0,1,8.531,2.678Zm1.333.094a1.454,1.454,0,0,0,2.907-.092,1.455,1.455,0,1,0-2.907.092Zm233.471,2.62A2.781,2.781,0,0,1,240.55,2.7,2.8,2.8,0,0,1,243.423,0a2.741,2.741,0,0,1,2.715,2.744,2.729,2.729,0,0,1-2.775,2.647Zm-1.423-2.717a1.451,1.451,0,1,0,2.9.013,1.5,1.5,0,0,0-1.446-1.461h-.006A1.5,1.5,0,0,0,241.912,2.675Zm-136.369.064A2.753,2.753,0,0,1,108.27,0a2.8,2.8,0,0,1,2.866,2.706,2.779,2.779,0,0,1-2.791,2.684h-.019A2.742,2.742,0,0,1,105.543,2.739Zm1.354.008a1.441,1.441,0,0,0,1.457,1.425A1.466,1.466,0,0,0,109.775,2.7a1.483,1.483,0,0,0-1.42-1.476h-.025A1.462,1.462,0,0,0,106.9,2.747ZM162.749,4.8a2.634,2.634,0,0,1-.4-3.814,2.793,2.793,0,0,1,4.328.157,3.644,3.644,0,0,0-.42.213c-.19.128-.369.276-.541.407-1.092-.643-1.779-.651-2.3-.041a1.579,1.579,0,0,0-.01,1.948c.542.647,1.231.646,2.3-.026.149.108.314.22.469.346.133.11.251.236.373.349a2.473,2.473,0,0,1-2.066,1.055A2.836,2.836,0,0,1,162.749,4.8Zm-102.8-.12A2.618,2.618,0,0,1,59.875.793a2.716,2.716,0,0,1,4.031.235,2.266,2.266,0,0,1-.218.246c-.2.167-.407.326-.651.52-.454-.3-.9-.71-1.492-.512a1.932,1.932,0,0,0-.8.485,1.506,1.506,0,0,0,.1,2c.567.561,1.223.527,2.2-.17.32.271.6.51.883.746a2.7,2.7,0,0,1-2.132,1.049A2.766,2.766,0,0,1,59.951,4.677ZM51.1,4.592a2.628,2.628,0,0,1,0-3.775,2.738,2.738,0,0,1,4.09.243c-.316.264-.584.485-.879.733-.48-.287-.925-.71-1.52-.508a1.938,1.938,0,0,0-.8.487,1.492,1.492,0,0,0,.044,1.935c.549.612,1.235.6,2.237-.074.145.1.3.22.467.331s.338.225.5.33A2.923,2.923,0,0,1,53,5.38,2.715,2.715,0,0,1,51.1,4.592Zm17.184.669a22.967,22.967,0,0,1-.1-5.018A13.24,13.24,0,0,1,72.1.21v.95c-.418.011-.843.028-1.27.033s-.868,0-1.4,0V2.207h2.186c.021.4.035.679.057,1.083H69.45c-.018.338-.031.557-.049.866h2.827c.029.379.051.679.072.966a8.264,8.264,0,0,1-2.285.227A16.048,16.048,0,0,1,68.286,5.26ZM175.57,5.209a1.677,1.677,0,0,1,.085-.353q1.026-2.135,2.066-4.265a1.552,1.552,0,0,1,.166-.308.48.48,0,0,1,.805.03c.813,1.612,1.6,3.239,2.4,4.883-1.215.231-1.215.231-1.8-.786h-2.009c-.213.555-.546.937-1.088.937A1.667,1.667,0,0,1,175.57,5.209Zm2.17-1.972h1.1l-.573-1.2C178.04,2.56,177.9,2.871,177.74,3.237ZM30.37,4.678a.959.959,0,0,0-1.292-.446c-.041.312-.085.648-.134,1.03H27.771V.159a21.927,21.927,0,0,1,3.066.028c1.329.19,1.874,2.019,1.014,3.155a4.222,4.222,0,0,1-.582.508c.362.485.656.877.956,1.277a2.559,2.559,0,0,1-.88.219C30.963,5.347,30.7,5.143,30.37,4.678Zm-1.3-3.432V2.983c.646.079,1.236.177,1.65-.387a.812.812,0,0,0-.008-.987.968.968,0,0,0-.875-.423C29.588,1.186,29.329,1.229,29.066,1.246ZM41.237,5.224a1.661,1.661,0,0,1,.085-.384q1.023-2.132,2.061-4.26c.026-.052.051-.107.081-.156.277-.448.716-.485.94-.031.772,1.569,1.507,3.157,2.254,4.739.01.02-.01.056-.024.131-.215.018-.443.033-.67.054a.612.612,0,0,1-.739-.458c-.12-.42-.426-.5-.816-.479-.492.021-.988,0-1.509,0-.178.655-.527.952-1.041.952A2.019,2.019,0,0,1,41.237,5.224ZM43.4,3.267h1.1c-.188-.408-.341-.741-.574-1.246Zm99.366,2.028a5.541,5.541,0,0,1,.195-.581q.984-2.052,1.98-4.1c.125-.259.217-.543.605-.526.343.013.426.264.538.5q1.036,2.123,2.062,4.254a2.934,2.934,0,0,1,.122.364c-.894.312-1.448.071-1.689-.78h-2.013c-.244.3-.421.688-.718.843a.79.79,0,0,1-.365.071C143.266,5.336,143.018,5.295,142.764,5.295Zm2.205-2.033h1.021a1.876,1.876,0,0,0-.068-.361c-.1-.234-.222-.459-.418-.859C145.291,2.53,145.146,2.858,144.969,3.261Zm78.21,1.933V.146H227.1V1.171h-2.616V2.232h2.138V3.283H224.5c-.016.341-.029.58-.047.92h2.8c.021.374.038.656.054.925a8.782,8.782,0,0,1-2.237.205A10.258,10.258,0,0,1,223.179,5.195ZM98.917,1.24l-1.545-.08V.149h4.415v1l-1.5.079c-.106,1.305,0,2.612-.067,4.016l-1.307.083ZM208.8,4.649c-.331-.562-.39-.528-1.231-.446-.043.315-.087.65-.14,1.048h-1.161V.131a11.917,11.917,0,0,1,3.1.056,2.009,2.009,0,0,1,.928,3.195,3.167,3.167,0,0,1-.552.443c.366.505.667.918,1.02,1.4a4.776,4.776,0,0,1-.811.1A1.222,1.222,0,0,1,208.8,4.649Zm-1.275-3.363V2.979c.666.083,1.257.184,1.671-.379a.808.808,0,0,0-.051-1.058,1.044,1.044,0,0,0-.839-.368A4.132,4.132,0,0,0,207.528,1.285Zm24.4,4.021a2.084,2.084,0,0,1-.366-.079V.133a9.193,9.193,0,0,1,3.022.1,2.554,2.554,0,0,1,1.758,2.8,2.5,2.5,0,0,1-2.4,2.264c-.261.014-.522.019-.784.019C232.753,5.322,232.342,5.311,231.93,5.306Zm.886-3.94V4.093c.867.1,1.618.144,2.071-.686a1.465,1.465,0,0,0-.156-1.638,1.418,1.418,0,0,0-1.139-.517A3.227,3.227,0,0,0,232.815,1.366ZM128.3.152h1.235v5.1l-1.235.061ZM156.409,5q-.868-.869-1.745-1.73c-.206-.2-.419-.4-.695-.664-.266.907.02,1.788-.2,2.665h-1.189V.2c.39-.22.666-.043.933.228.6.6,1.2,1.2,1.806,1.792.181.176.372.339.708.646V.146c.476,0,.843,0,1.21,0a24.474,24.474,0,0,1,.087,5.042.616.616,0,0,1-.344.118A.848.848,0,0,1,156.409,5Zm-18.86-.017q-.865-.868-1.743-1.728c-.2-.2-.415-.382-.777-.713-.01.592-.023,1.012-.026,1.432s0,.81,0,1.279h-1.176a24.128,24.128,0,0,1-.092-5.044c.364-.235.64-.066.905.2.579.579,1.163,1.151,1.746,1.725.207.2.418.4.63.6l.2-.061V.135H138.4a26.394,26.394,0,0,1,.062,5.065.625.625,0,0,1-.333.107A.878.878,0,0,1,137.549,4.98ZM2.027,5.266a2.512,2.512,0,0,1-.083-.591,3.284,3.284,0,0,0-.6-2.217C.884,1.753.5,1.005,0,.135.391.113.622.116.848.085A.829.829,0,0,1,1.8.656c.206.445.48.859.764,1.354A2.994,2.994,0,0,0,3.29.925c.549-.954.6-.986,1.894-.7-.43.751-.815,1.5-1.271,2.2a3.365,3.365,0,0,0-.633,2.3,2.7,2.7,0,0,1-.064.55Zm183.179,0V.135h1.242V4.218h2.534V5.264Zm-64.657,0V.141h3.975V1.187h-2.7V2.8h2.307V3.929h-2.307c-.04.489-.072.882-.108,1.332Zm94.371,0V.144h3.9V1.171h-2.6V2.222h2.123c.02.362.038.664.059,1.064h-2.181V4.2h2.752c.026.246.056.411.061.577,0,.141-.021.282-.039.482Zm-16.884-.007V.118C199.377.066,200.692.09,202.052.1V1.2h-2.7v1.6h2.26V3.965h-2.268c-.035.474-.064.846-.1,1.286Zm-27.575,0V.138h1.151a24.892,24.892,0,0,1,.052,5.112Zm84.427-.009V3.252l-.205-.062c-.41.5-.818,1.01-1.26,1.554-.433-.541-.813-1.018-1.246-1.562-.351.67-.015,1.363-.266,2.054h-1.176V.192c.449-.221.684.016.912.316.564.744,1.14,1.481,1.781,2.314.623-.81,1.211-1.561,1.785-2.323.229-.305.464-.53.907-.3V5.241Z" transform="translate(0 28.808)" fill="#f85000" stroke="rgba(0,0,0,0)" stroke-miterlimit="10" stroke-width="1"/>
  </g>
</svg>
