<svg id="Group_49937" data-name="Group 49937" xmlns="http://www.w3.org/2000/svg" width="24.545" height="24.545" viewBox="0 0 24.545 24.545">
  <path id="Path_68427" data-name="Path 68427" d="M0,0H24.545V24.545H0Z" fill="none"/>
  <path id="Path_68428" data-name="Path 68428" d="M2,20.692H22.769v2.077H2Zm2.077-8.308H6.154v7.269H4.077Zm5.192,0h2.077v7.269H9.269Zm4.154,0H15.5v7.269H13.423Zm5.192,0h2.077v7.269H18.615ZM2,7.192,12.385,2,22.769,7.192v4.154H2ZM4.077,8.476v.793H20.692V8.476L12.385,4.322Zm8.308-.245a1.038,1.038,0,1,1,1.038-1.038A1.038,1.038,0,0,1,12.385,8.231Z" transform="translate(-0.112 -0.112)" fill="#32a4ff"/>
</svg>
