<svg id="Group_12424" data-name="Group 12424" xmlns="http://www.w3.org/2000/svg" width="21.461" height="21.461" viewBox="0 0 21.461 21.461">
  <path id="Path_68461" data-name="Path 68461" d="M0,0H21.461V21.461H0Z" fill="none"/>
  <path id="Path_68462" data-name="Path 68462" d="M6.971,3.84V18.556h9.855V3.84ZM5.985,2H17.811a.954.954,0,0,1,.985.92V19.476a.954.954,0,0,1-.985.92H5.985A.954.954,0,0,1,5,19.476V2.92A.954.954,0,0,1,5.985,2ZM11.9,15.8a.922.922,0,1,1-.985.92A.954.954,0,0,1,11.9,15.8Z" transform="translate(-1.168 -0.467)" fill="#f86847"/>
</svg>
