<svg xmlns="http://www.w3.org/2000/svg" width="52" height="52" viewBox="0 0 52 52">
  <g id="Group_50229" data-name="Group 50229" transform="translate(-1043 -330)">
    <g id="Group_50226" data-name="Group 50226" transform="translate(0 -6)">
      <g id="Ellipse_190" data-name="Ellipse 190" transform="translate(1043 336)" fill="#f86847" stroke="#fff" stroke-width="2">
        <circle cx="26" cy="26" r="26" stroke="none"/>
        <circle cx="26" cy="26" r="25" fill="none"/>
      </g>
    </g>
    <g id="Group_50228" data-name="Group 50228" transform="translate(1055 342)">
      <path id="Path_69510" data-name="Path 69510" d="M0,0H28V28H0Z" fill="none"/>
      <path id="Path_69511" data-name="Path 69511" d="M2,4.214A1.211,1.211,0,0,1,3.19,3H24.81A1.2,1.2,0,0,1,26,4.214V23.786A1.211,1.211,0,0,1,24.81,25H3.19A1.2,1.2,0,0,1,2,23.786ZM14,17.667A3.667,3.667,0,1,1,17.6,14,3.634,3.634,0,0,1,14,17.667Zm0,2.444A6.112,6.112,0,1,0,8,14,6.056,6.056,0,0,0,14,20.111ZM21.2,5.444V7.889h2.4V5.444Z" transform="translate(0 0)" fill="#fff"/>
    </g>
  </g>
</svg>
