<svg id="check_2" data-name="check 2" xmlns="http://www.w3.org/2000/svg" width="24" height="24" viewBox="0 0 24 24">
  <g id="Group">
    <path id="Vector" d="M22.141,11.07A11.07,11.07,0,1,1,11.07,0,11.07,11.07,0,0,1,22.141,11.07Z" transform="translate(0.929 0.929)" fill="#32a4fb"/>
    <path id="Vector-2" data-name="Vector" d="M12,24A12,12,0,1,1,24,12,12.014,12.014,0,0,1,12,24ZM12,1.859A10.141,10.141,0,1,0,22.141,12,10.152,10.152,0,0,0,12,1.859Z" fill="#4dbfff"/>
  </g>
  <path id="Vector-3" data-name="Vector" d="M4.359,8.83A.928.928,0,0,1,3.7,8.552L.267,5.066a.929.929,0,0,1,1.325-1.3l2.74,2.785L10,.3a.929.929,0,1,1,1.376,1.25L5.047,8.526a.93.93,0,0,1-.669.3Z" transform="translate(6.19 7.586)" fill="#fff"/>
</svg>
