<svg xmlns="http://www.w3.org/2000/svg" width="75" height="75" viewBox="0 0 75 75">
  <g id="Group_50183" data-name="Group 50183" transform="translate(-54.986 -222.986)">
    <rect id="Rectangle_5030" data-name="Rectangle 5030" width="75" height="75" rx="15" transform="translate(54.986 222.986)" fill="#32a4ff"/>
    <g id="book-open-line" transform="translate(72.986 240.986)">
      <path id="Path_68547" data-name="Path 68547" d="M0,0H40V40H0Z" fill="none"/>
      <path id="Path_68548" data-name="Path 68548" d="M21.8,35.4V39H18.2V35.4H3.8A1.8,1.8,0,0,1,2,33.6V4.8A1.8,1.8,0,0,1,3.8,3H14.6A7.182,7.182,0,0,1,20,5.437,7.182,7.182,0,0,1,25.4,3H36.2A1.8,1.8,0,0,1,38,4.8V33.6a1.8,1.8,0,0,1-1.8,1.8Zm12.6-3.6V6.6h-9a3.6,3.6,0,0,0-3.6,3.6V31.8Zm-16.2,0V10.2a3.6,3.6,0,0,0-3.6-3.6h-9V31.8Z" transform="translate(0 0)" fill="#fff"/>
    </g>
  </g>
</svg>
