<svg xmlns="http://www.w3.org/2000/svg" width="75" height="75" viewBox="0 0 75 75">
  <g id="Group_50181" data-name="Group 50181" transform="translate(-495 -940)">
    <g id="Group_50179" data-name="Group 50179" transform="translate(440.014 717.014)">
      <rect id="Rectangle_5030" data-name="Rectangle 5030" width="75" height="75" rx="15" transform="translate(54.986 222.986)" fill="#32a4ff"/>
    </g>
    <g id="Group_50180" data-name="Group 50180" transform="translate(513 958)">
      <path id="Path_68479" data-name="Path 68479" d="M0,0H40V40H0Z" fill="none"/>
      <path id="Path_68480" data-name="Path 68480" d="M5.544,26.667V5.524H2V2H7.317A1.767,1.767,0,0,1,9.089,3.762V24.9H31.131l3.544-14.1H12.633V7.286H36.948a1.776,1.776,0,0,1,1.4.678,1.754,1.754,0,0,1,.322,1.512L34.236,27.095a1.77,1.77,0,0,1-1.719,1.334H7.317A1.767,1.767,0,0,1,5.544,26.667ZM9.089,39a3.524,3.524,0,1,1,3.544-3.524A3.534,3.534,0,0,1,9.089,39Zm21.266,0A3.524,3.524,0,1,1,33.9,35.476,3.534,3.534,0,0,1,30.355,39Z" transform="translate(0 0)" fill="#fff"/>
    </g>
  </g>
</svg>
