<svg xmlns="http://www.w3.org/2000/svg" width="75" height="75" viewBox="0 0 75 75">
  <g id="Group_50176" data-name="Group 50176" transform="translate(-320 -523)">
    <g id="Group_50160" data-name="Group 50160" transform="translate(320 523)">
      <g id="Group_50177" data-name="Group 50177">
        <g id="Group_50158" data-name="Group 50158">
          <rect id="Rectangle_5030" data-name="Rectangle 5030" width="75" height="75" rx="15" fill="#32a4ff"/>
        </g>
        <g id="Group_50159" data-name="Group 50159" transform="translate(17.64 17.641)">
          <path id="Path_68469" data-name="Path 68469" d="M0,0H40V40H0Z" transform="translate(0)" fill="none"/>
          <path id="Path_68470" data-name="Path 68470" d="M30.629,13.857V27.429A1.4,1.4,0,0,1,29.2,28.786H27.766a1.4,1.4,0,0,1-1.431-1.357V26.072H6.294v1.357a1.4,1.4,0,0,1-1.431,1.357H3.431A1.4,1.4,0,0,1,2,27.429V13.857L5.5,7.215a2.883,2.883,0,0,1,2.562-1.5H12.02V3h8.589V5.714h3.957a2.883,2.883,0,0,1,2.561,1.5Zm-2.863,2.714H4.863v6.786h22.9ZM5.2,13.857H27.428L24.565,8.429H8.064ZM8.442,22a2.039,2.039,0,1,1,0-4.072,2.039,2.039,0,1,1,0,4.072Zm15.746,0a2.039,2.039,0,1,1,2.147-2.036A2.094,2.094,0,0,1,24.187,22Z" transform="translate(3.686 5.528)" fill="#fff"/>
        </g>
      </g>
    </g>
  </g>
</svg>
