<svg xmlns="http://www.w3.org/2000/svg" width="75" height="75" viewBox="0 0 75 75">
  <g id="Group_50163" data-name="Group 50163" transform="translate(-377 -832)">
    <g id="Group_50162" data-name="Group 50162" transform="translate(377 832)">
      <g id="Group_50158" data-name="Group 50158">
        <rect id="Rectangle_5030" data-name="Rectangle 5030" width="75" height="75" rx="15" fill="#32a4ff"/>
      </g>
    </g>
    <g id="Group_50161" data-name="Group 50161" transform="translate(396.255 851.256)">
      <path id="Path_68471" data-name="Path 68471" d="M0,0H40V40H0Z" fill="none"/>
      <path id="Path_68472" data-name="Path 68472" d="M29.83,35.553H11.277v1.915a1.886,1.886,0,0,1-1.855,1.915H7.566a1.886,1.886,0,0,1-1.855-1.915V35.553H3.855V20.234H2v-7.66H3.855V6.83A3.772,3.772,0,0,1,7.566,3H33.54a3.772,3.772,0,0,1,3.711,3.83v5.745h1.855v7.66H37.251V35.553H35.4v1.915a1.886,1.886,0,0,1-1.855,1.915H31.685a1.886,1.886,0,0,1-1.855-1.915ZM33.54,20.234V6.83H7.566v13.4Zm0,3.83H7.566v7.66H33.54ZM9.421,25.979h7.421v3.83H9.421Zm14.843,0h7.421v3.83H24.264Z" transform="translate(-0.553 -0.83)" fill="#fff"/>
    </g>
  </g>
</svg>
