<svg xmlns="http://www.w3.org/2000/svg" width="75" height="75" viewBox="0 0 75 75">
  <g id="Group_50152" data-name="Group 50152" transform="translate(-54.986 -222.986)">
    <rect id="Rectangle_5030" data-name="Rectangle 5030" width="75" height="75" rx="15" transform="translate(54.986 222.986)" fill="#32a4ff"/>
    <g id="settings-4-line" transform="translate(61.589 229.589)">
      <path id="Path_68551" data-name="Path 68551" d="M0,0H61.76V61.76H0Z" fill="none"/>
      <path id="Path_68552" data-name="Path 68552" d="M2,24.7a22.827,22.827,0,0,1,.747-5.8,7.13,7.13,0,0,0,6.516-3.466,6.837,6.837,0,0,0-.192-7.264A23.741,23.741,0,0,1,19.323,2.362a7.112,7.112,0,0,0,6.324,3.8,7.112,7.112,0,0,0,6.324-3.8A23.741,23.741,0,0,1,42.223,8.169a6.837,6.837,0,0,0-.193,7.267,7.13,7.13,0,0,0,6.52,3.465,22.906,22.906,0,0,1,0,11.606,7.13,7.13,0,0,0-6.518,3.465,6.837,6.837,0,0,0,.192,7.265,23.741,23.741,0,0,1-10.252,5.807,7.161,7.161,0,0,0-12.648,0A23.741,23.741,0,0,1,9.071,41.238a6.837,6.837,0,0,0,.193-7.267,7.13,7.13,0,0,0-6.52-3.465A22.874,22.874,0,0,1,2,24.7Zm11.361,6.954a11.382,11.382,0,0,1,1.334,8.169,19.035,19.035,0,0,0,3.067,1.739,12.009,12.009,0,0,1,15.774,0A19.035,19.035,0,0,0,36.6,39.826a11.376,11.376,0,0,1,1.334-8.169,11.763,11.763,0,0,1,6.551-5.216,18.465,18.465,0,0,0,0-3.477,11.763,11.763,0,0,1-6.553-5.216A11.376,11.376,0,0,1,36.6,9.58a18.991,18.991,0,0,0-3.067-1.739A11.945,11.945,0,0,1,25.649,10.8a11.945,11.945,0,0,1-7.887-2.953A18.993,18.993,0,0,0,14.695,9.58a11.376,11.376,0,0,1-1.334,8.169A11.763,11.763,0,0,1,6.81,22.965a18.465,18.465,0,0,0,0,3.477,11.763,11.763,0,0,1,6.553,5.216Zm12.288,0A6.956,6.956,0,1,1,32.744,24.7,7.026,7.026,0,0,1,25.649,31.657Zm0-4.636A2.319,2.319,0,1,0,23.284,24.7,2.342,2.342,0,0,0,25.649,27.021Z" transform="translate(5.23 6.177)" fill="#fff"/>
    </g>
  </g>
</svg>
