<svg xmlns="http://www.w3.org/2000/svg" width="75" height="75" viewBox="0 0 75 75">
  <g id="Group_50735" data-name="Group 50735" transform="translate(-470 -189)">
    <g id="Group_50151" data-name="Group 50151" transform="translate(440.014 -33.986)">
      <g id="Group_50175" data-name="Group 50175" transform="translate(29.986 222.986)">
        <rect id="Rectangle_5030" data-name="Rectangle 5030" width="75" height="75" rx="15" fill="#32a4ff"/>
      </g>
    </g>
    <g id="app-update" transform="translate(487 199)">
      <path id="Path_68629" data-name="Path 68629" d="M7.807,0H32.858A9.051,9.051,0,0,1,38.38,1.782a5.477,5.477,0,0,1,2.286,4.3V49.069a5.517,5.517,0,0,1-2.286,4.3,8.987,8.987,0,0,1-5.521,1.782H7.807a9.052,9.052,0,0,1-5.521-1.782A5.47,5.47,0,0,1,0,49.069V6.086a5.517,5.517,0,0,1,2.286-4.3A8.975,8.975,0,0,1,7.807,0ZM21.66,16.778,19.6,24.952,17.509,22.5c-4.5,1.409-7.03,3.734-7.41,7.312C6.4,24.768,8.648,20.243,13.334,17.6L11.2,15.09,21.66,16.778ZM19,35.98l2.061-8.174,2.09,2.455c4.5-1.409,7.03-3.734,7.41-7.312,3.7,5.045,1.451,9.565-3.236,12.213l2.136,2.5L19,35.98Zm1.318,11.7c1.768,0,3.213,1.113,3.213,2.5s-1.428,2.5-3.213,2.5c-1.768,0-3.213-1.113-3.213-2.5s1.428-2.5,3.213-2.5Zm-18.1-1.356h36.2V6.674H2.217V46.322Z" transform="translate(0 0)" fill="#fff" fill-rule="evenodd"/>
    </g>
  </g>
</svg>
