<svg id="Group_49944" data-name="Group 49944" xmlns="http://www.w3.org/2000/svg" width="18" height="18" viewBox="0 0 18 18">
  <path id="Path_69406" data-name="Path 69406" d="M0,0H18V18H0Z" fill="none"/>
  <path id="Path_69407" data-name="Path 69407" d="M9,15.681,12.3,12.1a5.379,5.379,0,0,0,0-7.166,4.411,4.411,0,0,0-6.6,0,5.379,5.379,0,0,0,0,7.166Zm0,2.047L4.757,13.121a6.916,6.916,0,0,1,0-9.213,5.671,5.671,0,0,1,8.485,0,6.916,6.916,0,0,1,0,9.213ZM9,9.962a1.394,1.394,0,0,0,1.333-1.448A1.394,1.394,0,0,0,9,7.067,1.394,1.394,0,0,0,7.667,8.515,1.394,1.394,0,0,0,9,9.962ZM9,11.41a2.788,2.788,0,0,1-2.667-2.9A2.788,2.788,0,0,1,9,5.619a2.788,2.788,0,0,1,2.667,2.9A2.788,2.788,0,0,1,9,11.41Z" transform="translate(0)" fill="#32a4ff"/>
</svg>
