<svg xmlns="http://www.w3.org/2000/svg" width="153.258" height="81.171" viewBox="0 0 153.258 81.171">
  <g id="Group_12265" data-name="Group 12265" transform="translate(0.812 0.618)">
    <g id="Group_12266" data-name="Group 12266" transform="translate(0.001 -0.001)">
      <path id="Union_15" data-name="Union 15" d="M17.87,71.883c-.29-.021-.581-.017-.871-.012-.16,0-.322,0-.482,0-.35,0-.707,0-.9-.377s.009-.667.2-.961q1.19-1.835,2.383-3.669c1.741-2.677,3.491-5.349,5.215-8.037a1.386,1.386,0,0,1,1.407-.763,7.3,7.3,0,0,0,1.2,0,1.189,1.189,0,0,1,1.157.633c1.5,2.338,3.016,4.665,4.526,6.995q1.545,2.381,3.089,4.762a3.123,3.123,0,0,1,.263.449.618.618,0,0,1-.5.926c-.777.048-1.56.03-2.339.007-.323-.009-.5-.276-.667-.529-.416-.64-.837-1.277-1.253-1.919q-2.3-3.563-4.607-7.128c-.093-.144-.193-.285-.349-.514-.161.236-.28.4-.39.572-1.892,2.931-3.791,5.857-5.662,8.8a1.406,1.406,0,0,1-1.265.763C17.969,71.889,17.92,71.887,17.87,71.883Zm64.9,0c-.286-.02-.572-.015-.859-.012-.2,0-.4.007-.6,0-.842-.021-1.12-.529-.662-1.243,1.1-1.709,2.211-3.407,3.317-5.11,1.447-2.226,2.9-4.446,4.334-6.685a1.384,1.384,0,0,1,1.405-.766,7.417,7.417,0,0,0,1.2,0,1.188,1.188,0,0,1,1.159.629c1.424,2.22,2.866,4.43,4.3,6.644q1.657,2.556,3.315,5.112a3.312,3.312,0,0,1,.262.449.631.631,0,0,1-.493.935,4.073,4.073,0,0,1-.674.034c-.169,0-.338,0-.508,0-.265,0-.53,0-.794.007a1.077,1.077,0,0,1-1.037-.558c-.424-.677-.872-1.337-1.306-2.008q-2.275-3.519-4.549-7.039c-.1-.156-.212-.3-.36-.517-.144.212-.251.363-.35.517-1.9,2.946-3.811,5.886-5.692,8.845a1.41,1.41,0,0,1-1.263.77Q82.847,71.889,82.774,71.883Zm51.909,0c-.274-.018-.548-.015-.824-.01-.229,0-.458.007-.685,0-.756-.03-1.015-.51-.646-1.163.059-.106.129-.206.2-.307l7.492-11.525c.066-.1.13-.205.2-.305a1.072,1.072,0,0,1,.97-.5c.5.017,1.008.02,1.511,0a1.127,1.127,0,0,1,1.072.594c.773,1.216,1.562,2.421,2.346,3.63l5.27,8.125a3.168,3.168,0,0,1,.292.492.627.627,0,0,1-.516.925c-.76.048-1.526.029-2.289.014a.881.881,0,0,1-.687-.5c-.427-.654-.855-1.307-1.28-1.963L142.528,62.3c-.1-.16-.213-.313-.374-.55-.155.227-.265.377-.366.534-1.9,2.946-3.812,5.885-5.692,8.844a1.409,1.409,0,0,1-1.274.758C134.777,71.888,134.731,71.886,134.683,71.883Zm-96.291-.015c-.545-.021-.781-.272-.785-.826-.009-1.3-.015-2.6,0-3.9a1.159,1.159,0,0,0-.349-.872q-3.16-3.39-6.3-6.8c-.083-.088-.168-.176-.247-.268a.651.651,0,0,1,.487-1.114c.712-.009,1.424-.013,2.135,0a1.264,1.264,0,0,1,.871.516q1.488,1.6,2.981,3.2c.568.61,1.138,1.218,1.7,1.831a4.7,4.7,0,0,1,.316.446c.181-.223.273-.351.377-.466,1.519-1.645,3.049-3.279,4.553-4.937a1.639,1.639,0,0,1,1.413-.609c.295.02.592.016.889.012.207,0,.414-.006.621,0a1.259,1.259,0,0,1,.5.1.575.575,0,0,1,.261.871,2.749,2.749,0,0,1-.365.438c-2.078,2.24-4.15,4.482-6.241,6.71a1.313,1.313,0,0,0-.389,1.015c.023,1.162.008,2.324.008,3.487,0,.139.008.278-.006.416a.73.73,0,0,1-.77.747q-.421.016-.842.016T38.392,71.868ZM101.418,69.2c-.008-.067,0-.136,0-.275.207-.01.4-.025.6-.026q5.78-.016,11.56-.032a6.773,6.773,0,0,0,.986-.063.718.718,0,0,0,.67-.684,2.469,2.469,0,0,0,.017-.415c-.015-.734-.292-1.052-1.027-1.1-1.593-.111-3.187-.2-4.781-.294-1.333-.079-2.671-.123-4-.24a7.15,7.15,0,0,1-1.766-.4,3.222,3.222,0,0,1-2.127-2.439,5.536,5.536,0,0,1,.046-2.78,2.974,2.974,0,0,1,1.994-2.163,5.807,5.807,0,0,1,1.728-.321q5.181-.047,10.363-.013a2.775,2.775,0,0,1,2.777,3.007h-.639q-5.832,0-11.665,0a5.479,5.479,0,0,0-.779.034.726.726,0,0,0-.711.706,2.711,2.711,0,0,0,.018.721.819.819,0,0,0,.67.712,4.2,4.2,0,0,0,.77.118c2.669.154,5.337.288,8.005.456a8.3,8.3,0,0,1,1.739.29,3.385,3.385,0,0,1,2.57,2.9,5.722,5.722,0,0,1-.1,2.428,3.125,3.125,0,0,1-2.159,2.273,6.481,6.481,0,0,1-2.056.272q-1.744,0-3.485,0c-2.033,0-4.065,0-6.1.01h-.025A3.018,3.018,0,0,1,101.418,69.2Zm26.138,2.659a.706.706,0,0,1-.718-.687,3.589,3.589,0,0,1-.011-.468q0-4.477,0-8.953V61.1h-5.778a4.42,4.42,0,0,1-.468-.009.653.653,0,0,1-.661-.669c-.023-.553-.022-1.11,0-1.665a.67.67,0,0,1,.622-.658,3.009,3.009,0,0,1,.468-.016h14.84c.121,0,.244,0,.365,0a.761.761,0,0,1,.786.8c.022.467.019.937,0,1.405a.749.749,0,0,1-.819.808c-.138.008-.277,0-.416,0h-5.713v9.527c0,.157.006.312,0,.469-.027.494-.248.752-.729.772q-.433.019-.868.018C128.157,71.882,127.856,71.876,127.556,71.863Zm-50.815.013c-.723-.01-.967-.252-.968-.978q-.006-3.541,0-7.081v-.558l-.093-.039c-.1.147-.206.289-.3.44q-2.254,3.656-4.5,7.314c-.091.148-.182.3-.276.442a.94.94,0,0,1-.826.459c-.5,0-1.008,0-1.511,0a.958.958,0,0,1-.855-.5c-.233-.386-.475-.767-.711-1.151q-2.006-3.258-4.012-6.516c-.1-.16-.2-.316-.306-.474l-.127.02v7.325c0,.1,0,.208,0,.313-.012.773-.22.98-1,.989-.452,0-.9.009-1.354,0-.663-.016-.909-.261-.909-.925q-.007-3.749,0-7.5c0-1.458,0-2.917,0-4.374,0-.757.241-.993,1-1,.275,0,.551,0,.826,0,.453,0,.907,0,1.362-.006a1.15,1.15,0,0,1,1.1.62q2.7,4.421,5.435,8.819c.09.145.189.284.31.466.12-.181.216-.319.3-.462q2.737-4.429,5.465-8.862a1.086,1.086,0,0,1,1.02-.579c.39,0,.781,0,1.171,0s.782,0,1.173,0c.627.007.883.258.9.886.013.451,0,.9,0,1.354V70.577c0,.157.007.313,0,.469a.757.757,0,0,1-.856.827c-.232.007-.464.01-.7.01C77.248,71.882,76.994,71.879,76.741,71.875ZM.784,71.868c-.5-.022-.767-.269-.771-.736C0,69.5.006,67.871.006,66.181c.239-.014.455-.039.671-.039l10.989,0a6.542,6.542,0,0,0,.83-.04.565.565,0,0,0,.551-.528.483.483,0,0,0,.017-.1c0-1.231.021-2.463-.011-3.694-.012-.467-.234-.628-.705-.669-.19-.016-.381-.01-.573-.01q-5.546,0-11.092,0H0c0-.358,0-.664,0-.971,0-.435-.013-.869.008-1.3a.722.722,0,0,1,.721-.739,3.459,3.459,0,0,1,.365-.007q5.676,0,11.353,0a6.529,6.529,0,0,1,.985.07,3.116,3.116,0,0,1,2.906,3.134,46.494,46.494,0,0,1,0,4.684,3.173,3.173,0,0,1-3.231,3.158c-.293.019-.589.023-.884.023q-4.141,0-8.28,0H3.264c0,.654,0,1.208,0,1.762-.008.746-.217.955-.971.963-.26,0-.521.006-.781.006C1.268,71.882,1.026,71.878.784,71.868ZM54.151,43.854a4.6,4.6,0,0,0-.282-.835c-2.647-7.269-5.275-14.545-7.947-21.806a5.38,5.38,0,0,1,3.24-6.932Q65.437,8.4,81.689,2.454C83.662,1.736,85.629,1,87.608.3A5.263,5.263,0,0,1,94.021,2.8a6.908,6.908,0,0,1,.39.907q1.724,4.718,3.439,9.437c.065.178.135.355.225.59.8,0,1.564-.013,2.327,0a8.082,8.082,0,0,1,1.4.115,5.642,5.642,0,0,1,4.579,5.612q.013,6.641,0,13.281c0,3.385.01,6.771,0,10.157a5.645,5.645,0,0,1-4.484,5.535,6.11,6.11,0,0,1-1.291.133q-20.37.01-40.739.008A5.691,5.691,0,0,1,54.151,43.854Zm3.714-13.91v6.667c0,2.032.015,4.063,0,6.094A1.9,1.9,0,0,0,59.9,44.754c.1-.01.208,0,.312,0h40.061c.192,0,.382,0,.573-.006a1.736,1.736,0,0,0,1.086-.448,2.006,2.006,0,0,0,.636-1.638q-.013-6.379,0-12.76c0-.169-.016-.338-.025-.534H57.865Zm1.768-12.392a1.74,1.74,0,0,0-1.7,1.487c-.085.854-.018,1.723-.018,2.623h44.606c0-.911.067-1.8-.022-2.669a1.577,1.577,0,0,0-1.228-1.344,3.336,3.336,0,0,0-.924-.1q-20.124-.007-40.249,0H59.88C59.8,17.546,59.715,17.547,59.633,17.552Z" transform="translate(0 0)" fill="#41b6e6" stroke="rgba(0,0,0,0)" stroke-width="1"/>
      <path id="Union_14" data-name="Union 14" d="M45.164,2.909,45.4,2.36a3.685,3.685,0,0,0,.371.08,6.868,6.868,0,0,0,.823.07c.1,0,.191-.114.285-.175-.076-.1-.131-.244-.23-.286-.237-.1-.5-.141-.744-.225-.522-.177-.727-.443-.707-.894a.923.923,0,0,1,.811-.88,2.537,2.537,0,0,1,1.576.225L47.29.833c-.269-.049-.5-.1-.742-.133a.93.93,0,0,0-.359.015.258.258,0,0,0-.165.163.249.249,0,0,0,.1.212,1.972,1.972,0,0,0,.387.143c.214.069.435.12.643.2a.784.784,0,0,1,.551.794.863.863,0,0,1-.584.842,2.123,2.123,0,0,1-.751.138A2.809,2.809,0,0,1,45.164,2.909ZM49.93,2.9c.1-.207.172-.371.247-.533.31.055.579.11.852.145a1.128,1.128,0,0,0,.412-.018c.082-.022.194-.114.2-.186a.285.285,0,0,0-.146-.233c-.307-.117-.632-.186-.938-.305A.8.8,0,0,1,50,.748a.892.892,0,0,1,.662-.666,2.491,2.491,0,0,1,1.686.184l-.278.569c-.229-.046-.427-.1-.629-.123a1.593,1.593,0,0,0-.513.013.188.188,0,0,0-.056.354,1.679,1.679,0,0,0,.385.149c.214.069.435.12.645.2a.806.806,0,0,1,.583.779.893.893,0,0,1-.612.88,2.258,2.258,0,0,1-.739.126A2.683,2.683,0,0,1,49.93,2.9ZM11.7,3.069a1.063,1.063,0,0,1-.718-.94c-.039-.668-.01-1.34-.01-2.043h.753c0,.335,0,.656,0,.979,0,.277-.007.554.019.829a.561.561,0,0,0,.64.589.569.569,0,0,0,.625-.611c.025-.362.012-.727.013-1.089,0-.222,0-.443,0-.7h.761a13.093,13.093,0,0,1-.047,2.17,1.046,1.046,0,0,1-.672.8,1.719,1.719,0,0,1-1.365.012ZM5.059,1.588a1.653,1.653,0,0,1,3.3,0A1.622,1.622,0,0,1,6.736,3.2H6.71A1.622,1.622,0,0,1,5.059,1.588Zm.791.055a.863.863,0,0,0,1.724-.055.863.863,0,1,0-1.724.055ZM144.312,3.2a1.65,1.65,0,0,1-1.651-1.6,1.661,1.661,0,0,1,1.7-1.6,1.625,1.625,0,0,1,1.61,1.627,1.619,1.619,0,0,1-1.646,1.57Zm-.844-1.611a.861.861,0,1,0,1.721.008.89.89,0,0,0-.858-.867h0A.888.888,0,0,0,143.468,1.586Zm-80.875.038A1.633,1.633,0,0,1,64.211,0a1.661,1.661,0,0,1,1.7,1.6A1.648,1.648,0,0,1,64.256,3.2h-.011A1.626,1.626,0,0,1,62.593,1.624Zm.8,0a.855.855,0,0,0,.864.845A.869.869,0,0,0,65.1,1.6a.879.879,0,0,0-.842-.875h-.015A.867.867,0,0,0,63.4,1.629ZM96.52,2.845A1.562,1.562,0,0,1,96.284.582a1.656,1.656,0,0,1,2.567.093A2.166,2.166,0,0,0,98.6.8c-.113.076-.219.164-.321.241-.647-.381-1.055-.386-1.366-.024a.937.937,0,0,0-.006,1.155c.321.384.731.383,1.362-.015.088.064.186.13.278.205s.149.14.221.207a1.467,1.467,0,0,1-1.225.626A1.682,1.682,0,0,1,96.52,2.845ZM35.554,2.774a1.553,1.553,0,0,1-.045-2.3A1.61,1.61,0,0,1,37.9.61a1.312,1.312,0,0,1-.129.146c-.117.1-.241.193-.386.308-.269-.18-.534-.421-.885-.3a1.144,1.144,0,0,0-.476.288.893.893,0,0,0,.057,1.184c.336.333.726.312,1.307-.1l.523.442a1.6,1.6,0,0,1-1.264.622A1.64,1.64,0,0,1,35.554,2.774Zm-5.248-.051a1.558,1.558,0,0,1,0-2.239A1.624,1.624,0,0,1,32.73.628l-.521.435c-.285-.17-.548-.421-.9-.3a1.149,1.149,0,0,0-.476.289A.885.885,0,0,0,30.857,2.2c.326.363.732.355,1.327-.044.086.061.18.13.277.2s.2.133.295.2a1.733,1.733,0,0,1-1.321.645A1.61,1.61,0,0,1,30.307,2.723Zm10.191.4A13.609,13.609,0,0,1,40.439.144,7.852,7.852,0,0,1,42.758.124V.688c-.248.007-.5.016-.753.019s-.514,0-.831,0v.6h1.3c.013.236.021.4.034.642H41.188c-.01.2-.018.331-.029.514h1.677c.017.225.03.4.043.573a4.9,4.9,0,0,1-1.355.135A9.535,9.535,0,0,1,40.5,3.12Zm63.626-.03a.993.993,0,0,1,.051-.209c.406-.844.816-1.687,1.225-2.53a.917.917,0,0,1,.1-.183.284.284,0,0,1,.477.018c.482.956.946,1.921,1.424,2.9-.721.137-.721.137-1.07-.466h-1.191c-.127.329-.324.555-.646.555A.989.989,0,0,1,104.124,3.09Zm1.287-1.17h.653l-.339-.712C105.589,1.518,105.506,1.7,105.411,1.92Zm-87.4.855a.569.569,0,0,0-.766-.265c-.024.185-.051.384-.08.611h-.7V.094a12.988,12.988,0,0,1,1.819.017,1.177,1.177,0,0,1,.6,1.871,2.475,2.475,0,0,1-.345.3c.215.288.389.52.567.758a1.517,1.517,0,0,1-.522.13C18.363,3.171,18.206,3.05,18.011,2.774ZM17.238.739v1.03c.383.047.733.1.979-.23a.482.482,0,0,0,0-.585A.575.575,0,0,0,17.692.7C17.548.7,17.394.729,17.238.739ZM24.456,3.1a1,1,0,0,1,.051-.228q.607-1.264,1.222-2.527c.016-.031.03-.063.048-.092.164-.266.425-.288.557-.019.458.931.894,1.872,1.337,2.811.006.012-.006.033-.015.078-.127.011-.263.019-.4.032a.363.363,0,0,1-.438-.272c-.071-.249-.253-.294-.484-.284-.292.013-.586,0-.895,0-.106.388-.312.564-.617.564A1.2,1.2,0,0,1,24.456,3.1Zm1.282-1.161h.655c-.111-.242-.2-.44-.34-.739Zm58.93,1.2a3.36,3.36,0,0,1,.115-.344q.584-1.217,1.175-2.43c.074-.154.129-.322.359-.312.2.008.253.157.319.294q.614,1.259,1.222,2.523a1.679,1.679,0,0,1,.072.216c-.53.185-.859.042-1-.463H85.735c-.145.18-.25.408-.426.5a.469.469,0,0,1-.217.042C84.965,3.165,84.818,3.14,84.668,3.14Zm1.308-1.206h.606a1.085,1.085,0,0,0-.041-.214c-.059-.139-.131-.272-.248-.509C86.166,1.5,86.081,1.695,85.976,1.934Zm46.383,1.147V.087h2.325V.694h-1.551v.629H134.4v.623h-1.259c-.009.2-.017.344-.028.546h1.662c.013.222.023.389.032.549a5.208,5.208,0,0,1-1.327.122A6.09,6.09,0,0,1,132.359,3.081ZM58.663.735,57.747.688v-.6h2.618V.683l-.887.047c-.063.774,0,1.549-.04,2.382l-.775.049Zm65.17,2.022c-.2-.333-.231-.313-.73-.265-.025.187-.052.385-.083.622h-.688V.078a7.061,7.061,0,0,1,1.841.033,1.191,1.191,0,0,1,.55,1.895,1.889,1.889,0,0,1-.327.263l.6.832a2.822,2.822,0,0,1-.481.057A.725.725,0,0,1,123.833,2.757ZM123.077.762v1c.395.049.746.109.991-.225a.48.48,0,0,0-.03-.627.619.619,0,0,0-.5-.218A2.447,2.447,0,0,0,123.077.762Zm14.472,2.385a1.224,1.224,0,0,1-.217-.047V.079a5.452,5.452,0,0,1,1.792.06A1.515,1.515,0,0,1,140.167,1.8a1.481,1.481,0,0,1-1.421,1.343c-.155.008-.31.011-.465.011C138.037,3.156,137.793,3.149,137.548,3.147ZM138.074.81V2.427c.514.061.96.086,1.228-.407a.869.869,0,0,0-.092-.972.842.842,0,0,0-.675-.307A1.915,1.915,0,0,0,138.074.81ZM76.09.09h.732V3.117l-.732.036ZM92.76,2.963q-.515-.515-1.035-1.026c-.122-.121-.249-.237-.412-.394-.158.538.012,1.06-.122,1.58h-.705V.116c.232-.13.395-.025.553.135q.531.537,1.071,1.063c.107.1.221.2.42.383V.087h.718a14.484,14.484,0,0,1,.052,2.99.365.365,0,0,1-.2.07A.5.5,0,0,1,92.76,2.963Zm-11.185-.01q-.513-.515-1.034-1.025c-.119-.117-.246-.227-.461-.423-.006.351-.014.6-.016.849s0,.48,0,.759h-.7A14.294,14.294,0,0,1,79.312.122c.216-.139.379-.039.537.119.343.343.69.683,1.036,1.023.122.12.248.237.373.356l.117-.036V.08h.707a15.632,15.632,0,0,1,.037,3,.37.37,0,0,1-.2.064A.52.52,0,0,1,81.575,2.953ZM1.2,3.123a1.5,1.5,0,0,1-.049-.35A1.949,1.949,0,0,0,.795,1.458C.524,1.04.295.6,0,.08.232.067.369.069.5.051a.492.492,0,0,1,.564.338c.122.264.285.51.453.8A1.774,1.774,0,0,0,1.951.549c.326-.566.358-.584,1.123-.417-.255.445-.483.888-.754,1.3A1.994,1.994,0,0,0,1.945,2.8a1.585,1.585,0,0,1-.038.326Zm108.636,0V.08h.736V2.5h1.5v.62Zm-38.345,0V.084H73.85V.7h-1.6v.957h1.368V2.33H72.249c-.023.29-.043.523-.064.79Zm55.968,0V.086h2.314V.694h-1.542v.624h1.259c.012.215.022.394.035.631h-1.293V2.49h1.632c.016.146.033.244.036.342s-.013.167-.023.286Zm-10.013,0V.07c.8-.031,1.575-.017,2.381-.009V.709h-1.6v.947h1.34v.7h-1.345c-.02.281-.038.5-.058.763Zm-16.354,0V.082h.683a14.75,14.75,0,0,1,.031,3.031Zm50.071,0V1.929l-.121-.037-.747.922c-.257-.321-.482-.6-.739-.927-.208.4-.009.808-.158,1.218h-.7V.114c.267-.131.406.01.541.188.335.442.676.878,1.056,1.372.369-.48.718-.926,1.059-1.378.135-.181.275-.314.538-.176V3.108Z" transform="translate(0.023 76.841)" fill="#f85000" stroke="rgba(0,0,0,0)" stroke-width="1"/>
      <rect id="Rectangle_4970" data-name="Rectangle 4970" width="8.89" height="8.869" transform="translate(61.327 32.423)" fill="#f85000"/>
    </g>
  </g>
</svg>
