<svg xmlns="http://www.w3.org/2000/svg" width="38.941" height="38.941" viewBox="0 0 38.941 38.941">
  <path id="Path_68474" data-name="Path 68474" d="M33.72,37.842l3.894,3.074v1.025H7.327V40.916l3.894-3.074H7.327A4.218,4.218,0,0,1,3,33.743V11.2A8.435,8.435,0,0,1,11.653,3H33.287a8.435,8.435,0,0,1,8.653,8.2V33.743a4.218,4.218,0,0,1-4.327,4.1ZM11.653,7.1a4.218,4.218,0,0,0-4.327,4.1V33.743H37.614V11.2a4.218,4.218,0,0,0-4.327-4.1ZM22.47,31.693a4.105,4.105,0,1,1,4.327-4.1A4.218,4.218,0,0,1,22.47,31.693ZM9.49,11.2h25.96v8.2H9.49Z" transform="translate(-3 -3)" fill="#fff"/>
</svg>
