<svg id="Group_12424" data-name="Group 12424" xmlns="http://www.w3.org/2000/svg" width="30.884" height="30.884" viewBox="0 0 30.884 30.884">
  <path id="Path_68461" data-name="Path 68461" d="M0,0H30.884V30.884H0Z" fill="none"/>
  <path id="Path_68462" data-name="Path 68462" d="M7.533,4.562v20.5H20.2V4.562ZM6.267,2h15.2a1.274,1.274,0,0,1,1.267,1.281V26.343a1.274,1.274,0,0,1-1.267,1.281H6.267A1.274,1.274,0,0,1,5,26.343V3.281A1.274,1.274,0,0,1,6.267,2Zm7.6,19.218A1.281,1.281,0,1,1,12.6,22.5,1.274,1.274,0,0,1,13.867,21.218Z" transform="translate(1.576 0.63)" fill="#fff"/>
</svg>
