<svg xmlns="http://www.w3.org/2000/svg" width="34" height="34" viewBox="0 0 34 34">
  <g id="Group_50216" data-name="Group 50216" transform="translate(-981 -362)">
    <g id="Group_50211" data-name="Group 50211" transform="translate(-4 54)">
      <g id="Group_50207" data-name="Group 50207" transform="translate(0 54)">
        <g id="Group_50203" data-name="Group 50203" transform="translate(0 54)">
          <g id="Group_50198" data-name="Group 50198" transform="translate(9 44)">
            <g id="Group_50196" data-name="Group 50196" transform="translate(940 -75)">
              <circle id="Ellipse_19" data-name="Ellipse 19" cx="17" cy="17" r="17" transform="translate(36 231)" fill="#32a4ff"/>
            </g>
          </g>
        </g>
      </g>
    </g>
    <g id="Group_50215" data-name="Group 50215" transform="translate(988 369)">
      <path id="Path_69506" data-name="Path 69506" d="M0,0H20V20H0Z" fill="none"/>
      <path id="Path_69507" data-name="Path 69507" d="M2.109,11.68a8.275,8.275,0,0,1,0-2.713A2.1,2.1,0,0,0,4.171,7.775a2.1,2.1,0,0,0-.616-2.3,8.275,8.275,0,0,1,1.919-1.92,2.1,2.1,0,0,0,2.3.616,2.1,2.1,0,0,0,1.19-2.062,8.275,8.275,0,0,1,2.715,0,2.1,2.1,0,0,0,1.19,2.062,2.1,2.1,0,0,0,2.3-.616,8.275,8.275,0,0,1,1.92,1.919,2.1,2.1,0,0,0-.616,2.3,2.1,2.1,0,0,0,2.062,1.19,8.275,8.275,0,0,1,0,2.715,2.1,2.1,0,0,0-2.062,1.19,2.1,2.1,0,0,0,.616,2.3,8.275,8.275,0,0,1-1.919,1.92,2.1,2.1,0,0,0-2.3-.616,2.1,2.1,0,0,0-1.19,2.062,8.275,8.275,0,0,1-2.715,0,2.1,2.1,0,0,0-1.19-2.062,2.1,2.1,0,0,0-2.3.616,8.275,8.275,0,0,1-1.92-1.919,2.1,2.1,0,0,0,.616-2.3,2.1,2.1,0,0,0-2.062-1.19Zm8.214,1.14a2.5,2.5,0,1,0-2.5-2.5A2.5,2.5,0,0,0,10.323,12.82Z" transform="translate(-0.323 -0.323)" fill="#fff"/>
    </g>
  </g>
</svg>
