<svg xmlns="http://www.w3.org/2000/svg" width="18.001" height="18.001" viewBox="0 0 18.001 18.001">
  <g id="Group_50074" data-name="Group 50074" transform="translate(-14253 -5045)">
    <path id="Fill_1" data-name="Fill 1" d="M11,3.35A7.65,7.65,0,1,0,18.651,11,7.659,7.659,0,0,0,11,3.35ZM11,20a9,9,0,1,1,9-9A9.011,9.011,0,0,1,11,20Z" transform="translate(14251 5043)" fill="#f86847"/>
    <path id="Fill_3" data-name="Fill 3" d="M14.979,14.833a.68.68,0,0,1-.346-.095l-3.393-2.024a.679.679,0,0,1-.329-.581V7.77a.675.675,0,1,1,1.35,0v3.98l3.065,1.827a.675.675,0,0,1-.347,1.256Z" transform="translate(14250.109 5042.491)" fill="#f86847"/>
  </g>
</svg>
