<svg width="42" height="42" viewBox="0 0 42 42" fill="none" xmlns="http://www.w3.org/2000/svg">
<circle cx="21" cy="21" r="21" fill="#32A4FF"/>
<path d="M18.8332 24.0002V26.9168C18.8332 28.6668 17.6665 29.8335 15.9165 29.8335H10.0832C8.33317 29.8335 7.1665 28.6668 7.1665 26.9168V24.0002C7.1665 22.4135 8.12317 21.3052 9.61067 21.1185C9.76234 21.0952 9.91984 21.0835 10.0832 21.0835H15.9165C16.0682 21.0835 16.214 21.0893 16.354 21.1127C17.859 21.2877 18.8332 22.4018 18.8332 24.0002Z" stroke="white" stroke-linecap="round" stroke-linejoin="round"/>
<path d="M16.3551 21.1123C16.2151 21.089 16.0693 21.0832 15.9176 21.0832H10.0843C9.92098 21.0832 9.76348 21.0948 9.61182 21.1182C9.69348 20.9548 9.81015 20.8032 9.95015 20.6632L11.846 18.7615C12.6451 17.9682 13.9401 17.9682 14.7393 18.7615L15.7601 19.794C16.1335 20.1615 16.3318 20.6282 16.3551 21.1123Z" stroke="white" stroke-linecap="round" stroke-linejoin="round"/>
<path d="M18.8332 24.2915H17.0832C16.4415 24.2915 15.9165 24.8165 15.9165 25.4582C15.9165 26.0998 16.4415 26.6248 17.0832 26.6248H18.8332" stroke="white" stroke-linecap="round" stroke-linejoin="round"/>
<path d="M28.3822 11.2542L33.6322 13.3542C33.8363 13.4359 33.9997 13.6809 33.9997 13.8967V15.8334C33.9997 16.1542 33.7372 16.4167 33.4163 16.4167H22.9163C22.5955 16.4167 22.333 16.1542 22.333 15.8334V13.8967C22.333 13.6809 22.4963 13.4359 22.7005 13.3542L27.9505 11.2542C28.0672 11.2076 28.2655 11.2076 28.3822 11.2542Z" stroke="white" stroke-miterlimit="10" stroke-linecap="round" stroke-linejoin="round"/>
<path d="M33.9997 22.8333H22.333V21.0833C22.333 20.7625 22.5955 20.5 22.9163 20.5H33.4163C33.7372 20.5 33.9997 20.7625 33.9997 21.0833V22.8333Z" stroke="white" stroke-miterlimit="10" stroke-linecap="round" stroke-linejoin="round"/>
<path d="M23.5 20.4998V16.4165" stroke="white" stroke-miterlimit="10" stroke-linecap="round" stroke-linejoin="round"/>
<path d="M25.833 20.4998V16.4165" stroke="white" stroke-miterlimit="10" stroke-linecap="round" stroke-linejoin="round"/>
<path d="M28.1665 20.4998V16.4165" stroke="white" stroke-miterlimit="10" stroke-linecap="round" stroke-linejoin="round"/>
<path d="M30.5 20.4998V16.4165" stroke="white" stroke-miterlimit="10" stroke-linecap="round" stroke-linejoin="round"/>
<path d="M32.833 20.4998V16.4165" stroke="white" stroke-miterlimit="10" stroke-linecap="round" stroke-linejoin="round"/>
<path d="M21.75 22.8335H34.5833" stroke="white" stroke-miterlimit="10" stroke-linecap="round" stroke-linejoin="round"/>
<path d="M28.1665 14.9585C28.6498 14.9585 29.0415 14.5667 29.0415 14.0835C29.0415 13.6002 28.6498 13.2085 28.1665 13.2085C27.6833 13.2085 27.2915 13.6002 27.2915 14.0835C27.2915 14.5667 27.6833 14.9585 28.1665 14.9585Z" stroke="white" stroke-miterlimit="10" stroke-linecap="round" stroke-linejoin="round"/>
<path d="M21.2499 16.9927C21.2458 16.8546 21.1307 16.7461 20.9927 16.7501L18.7436 16.8162C18.6056 16.8202 18.497 16.9354 18.5011 17.0734C18.5051 17.2114 18.6203 17.32 18.7583 17.316L20.7575 17.2572L20.8162 19.2564C20.8202 19.3944 20.9354 19.503 21.0734 19.4989C21.2114 19.4949 21.32 19.3797 21.316 19.2417L21.2499 16.9927ZM18.4319 20.088L21.1819 17.1715L20.8181 16.8285L18.0681 19.745L18.4319 20.088Z" fill="white"/>
</svg>
