<svg xmlns="http://www.w3.org/2000/svg" width="152.945" height="73.006" viewBox="0 0 152.945 73.006">
  <path id="Union_15" data-name="Union 15" d="M17.87,71.883c-.29-.021-.581-.017-.871-.012-.16,0-.322,0-.482,0-.35,0-.707,0-.9-.377s.009-.667.2-.961q1.19-1.835,2.383-3.669c1.741-2.677,3.491-5.349,5.215-8.037a1.386,1.386,0,0,1,1.407-.763,7.3,7.3,0,0,0,1.2,0,1.189,1.189,0,0,1,1.157.633c1.5,2.338,3.016,4.665,4.526,6.995q1.545,2.381,3.089,4.762a3.123,3.123,0,0,1,.263.449.618.618,0,0,1-.5.926c-.777.048-1.56.03-2.339.007-.323-.009-.5-.276-.667-.529-.416-.64-.837-1.277-1.253-1.919q-2.3-3.563-4.607-7.128c-.093-.144-.193-.285-.349-.514-.161.236-.28.4-.39.572-1.892,2.931-3.791,5.857-5.662,8.8a1.406,1.406,0,0,1-1.265.763C17.969,71.889,17.92,71.887,17.87,71.883Zm64.9,0c-.286-.02-.572-.015-.859-.012-.2,0-.4.007-.6,0-.842-.021-1.12-.529-.662-1.243,1.1-1.709,2.211-3.407,3.317-5.11,1.447-2.226,2.9-4.446,4.334-6.685a1.384,1.384,0,0,1,1.405-.766,7.417,7.417,0,0,0,1.2,0,1.188,1.188,0,0,1,1.159.629c1.424,2.22,2.866,4.43,4.3,6.644q1.657,2.556,3.315,5.112a3.312,3.312,0,0,1,.262.449.631.631,0,0,1-.493.935,4.073,4.073,0,0,1-.674.034c-.169,0-.338,0-.508,0-.265,0-.53,0-.794.007a1.077,1.077,0,0,1-1.037-.558c-.424-.677-.872-1.337-1.306-2.008q-2.275-3.519-4.549-7.039c-.1-.156-.212-.3-.36-.517-.144.212-.251.363-.35.517-1.9,2.946-3.811,5.886-5.692,8.845a1.41,1.41,0,0,1-1.263.77Q82.847,71.889,82.774,71.883Zm51.909,0c-.274-.018-.548-.015-.824-.01-.229,0-.458.007-.685,0-.756-.03-1.015-.51-.646-1.163.059-.106.129-.206.2-.307l7.492-11.525c.066-.1.13-.205.2-.305a1.072,1.072,0,0,1,.97-.5c.5.017,1.008.02,1.511,0a1.127,1.127,0,0,1,1.072.594c.773,1.216,1.562,2.421,2.346,3.63l5.27,8.125a3.168,3.168,0,0,1,.292.492.627.627,0,0,1-.516.925c-.76.048-1.526.029-2.289.014a.881.881,0,0,1-.687-.5c-.427-.654-.855-1.307-1.28-1.963L142.528,62.3c-.1-.16-.213-.313-.374-.55-.155.227-.265.377-.366.534-1.9,2.946-3.812,5.885-5.692,8.844a1.409,1.409,0,0,1-1.274.758C134.777,71.888,134.731,71.886,134.683,71.883Zm-96.291-.015c-.545-.021-.781-.272-.785-.826-.009-1.3-.015-2.6,0-3.9a1.159,1.159,0,0,0-.349-.872q-3.16-3.39-6.3-6.8c-.083-.088-.168-.176-.247-.268a.651.651,0,0,1,.487-1.114c.712-.009,1.424-.013,2.135,0a1.264,1.264,0,0,1,.871.516q1.488,1.6,2.981,3.2c.568.61,1.138,1.218,1.7,1.831a4.7,4.7,0,0,1,.316.446c.181-.223.273-.351.377-.466,1.519-1.645,3.049-3.279,4.553-4.937a1.639,1.639,0,0,1,1.413-.609c.295.02.592.016.889.012.207,0,.414-.006.621,0a1.259,1.259,0,0,1,.5.1.575.575,0,0,1,.261.871,2.749,2.749,0,0,1-.365.438c-2.078,2.24-4.15,4.482-6.241,6.71a1.313,1.313,0,0,0-.389,1.015c.023,1.162.008,2.324.008,3.487,0,.139.008.278-.006.416a.73.73,0,0,1-.77.747q-.421.016-.842.016T38.392,71.868ZM101.418,69.2c-.008-.067,0-.136,0-.275.207-.01.4-.025.6-.026q5.78-.016,11.56-.032a6.773,6.773,0,0,0,.986-.063.718.718,0,0,0,.67-.684,2.469,2.469,0,0,0,.017-.415c-.015-.734-.292-1.052-1.027-1.1-1.593-.111-3.187-.2-4.781-.294-1.333-.079-2.671-.123-4-.24a7.15,7.15,0,0,1-1.766-.4,3.222,3.222,0,0,1-2.127-2.439,5.536,5.536,0,0,1,.046-2.78,2.974,2.974,0,0,1,1.994-2.163,5.807,5.807,0,0,1,1.728-.321q5.181-.047,10.363-.013a2.775,2.775,0,0,1,2.777,3.007h-.639q-5.832,0-11.665,0a5.479,5.479,0,0,0-.779.034.726.726,0,0,0-.711.706,2.711,2.711,0,0,0,.018.721.819.819,0,0,0,.67.712,4.2,4.2,0,0,0,.77.118c2.669.154,5.337.288,8.005.456a8.3,8.3,0,0,1,1.739.29,3.385,3.385,0,0,1,2.57,2.9,5.722,5.722,0,0,1-.1,2.428,3.125,3.125,0,0,1-2.159,2.273,6.481,6.481,0,0,1-2.056.272q-1.744,0-3.485,0c-2.033,0-4.065,0-6.1.01h-.025A3.018,3.018,0,0,1,101.418,69.2Zm26.138,2.659a.706.706,0,0,1-.718-.687,3.589,3.589,0,0,1-.011-.468q0-4.477,0-8.953V61.1h-5.778a4.42,4.42,0,0,1-.468-.009.653.653,0,0,1-.661-.669c-.023-.553-.022-1.11,0-1.665a.67.67,0,0,1,.622-.658,3.009,3.009,0,0,1,.468-.016h14.84c.121,0,.244,0,.365,0a.761.761,0,0,1,.786.8c.022.467.019.937,0,1.405a.749.749,0,0,1-.819.808c-.138.008-.277,0-.416,0h-5.713v9.527c0,.157.006.312,0,.469-.027.494-.248.752-.729.772q-.433.019-.868.018C128.157,71.882,127.856,71.876,127.556,71.863Zm-50.815.013c-.723-.01-.967-.252-.968-.978q-.006-3.541,0-7.081v-.558l-.093-.039c-.1.147-.206.289-.3.44q-2.254,3.656-4.5,7.314c-.091.148-.182.3-.276.442a.94.94,0,0,1-.826.459c-.5,0-1.008,0-1.511,0a.958.958,0,0,1-.855-.5c-.233-.386-.475-.767-.711-1.151q-2.006-3.258-4.012-6.516c-.1-.16-.2-.316-.306-.474l-.127.02v7.325c0,.1,0,.208,0,.313-.012.773-.22.98-1,.989-.452,0-.9.009-1.354,0-.663-.016-.909-.261-.909-.925q-.007-3.749,0-7.5c0-1.458,0-2.917,0-4.374,0-.757.241-.993,1-1,.275,0,.551,0,.826,0,.453,0,.907,0,1.362-.006a1.15,1.15,0,0,1,1.1.62q2.7,4.421,5.435,8.819c.09.145.189.284.31.466.12-.181.216-.319.3-.462q2.737-4.429,5.465-8.862a1.086,1.086,0,0,1,1.02-.579c.39,0,.781,0,1.171,0s.782,0,1.173,0c.627.007.883.258.9.886.013.451,0,.9,0,1.354V70.577c0,.157.007.313,0,.469a.757.757,0,0,1-.856.827c-.232.007-.464.01-.7.01C77.248,71.882,76.994,71.879,76.741,71.875ZM.784,71.868c-.5-.022-.767-.269-.771-.736C0,69.5.006,67.871.006,66.181c.239-.014.455-.039.671-.039l10.989,0a6.542,6.542,0,0,0,.83-.04.565.565,0,0,0,.551-.528.483.483,0,0,0,.017-.1c0-1.231.021-2.463-.011-3.694-.012-.467-.234-.628-.705-.669-.19-.016-.381-.01-.573-.01q-5.546,0-11.092,0H0c0-.358,0-.664,0-.971,0-.435-.013-.869.008-1.3a.722.722,0,0,1,.721-.739,3.459,3.459,0,0,1,.365-.007q5.676,0,11.353,0a6.529,6.529,0,0,1,.985.07,3.116,3.116,0,0,1,2.906,3.134,46.494,46.494,0,0,1,0,4.684,3.173,3.173,0,0,1-3.231,3.158c-.293.019-.589.023-.884.023q-4.141,0-8.28,0H3.264c0,.654,0,1.208,0,1.762-.008.746-.217.955-.971.963-.26,0-.521.006-.781.006C1.268,71.882,1.026,71.878.784,71.868ZM54.151,43.854a4.6,4.6,0,0,0-.282-.835c-2.647-7.269-5.275-14.545-7.947-21.806a5.38,5.38,0,0,1,3.24-6.932Q65.437,8.4,81.689,2.454C83.662,1.736,85.629,1,87.608.3A5.263,5.263,0,0,1,94.021,2.8a6.908,6.908,0,0,1,.39.907q1.724,4.718,3.439,9.437c.065.178.135.355.225.59.8,0,1.564-.013,2.327,0a8.082,8.082,0,0,1,1.4.115,5.642,5.642,0,0,1,4.579,5.612q.013,6.641,0,13.281c0,3.385.01,6.771,0,10.157a5.645,5.645,0,0,1-4.484,5.535,6.11,6.11,0,0,1-1.291.133q-20.37.01-40.739.008A5.691,5.691,0,0,1,54.151,43.854Zm3.714-13.91v6.667c0,2.032.015,4.063,0,6.094A1.9,1.9,0,0,0,59.9,44.754c.1-.01.208,0,.312,0h40.061c.192,0,.382,0,.573-.006a1.736,1.736,0,0,0,1.086-.448,2.006,2.006,0,0,0,.636-1.638q-.013-6.379,0-12.76c0-.169-.016-.338-.025-.534H57.865Zm1.768-12.392a1.74,1.74,0,0,0-1.7,1.487c-.085.854-.018,1.723-.018,2.623h44.606c0-.911.067-1.8-.022-2.669a1.577,1.577,0,0,0-1.228-1.344,3.336,3.336,0,0,0-.924-.1q-20.124-.007-40.249,0H59.88C59.8,17.546,59.715,17.547,59.633,17.552Z" transform="translate(0.499 0.617)" fill="#41b6e6" stroke="rgba(0,0,0,0)" stroke-miterlimit="10" stroke-width="1"/>
</svg>
