<svg width="196" height="18" viewBox="0 0 196 18" fill="none" xmlns="http://www.w3.org/2000/svg">
<path d="M23.0544 17.988C22.6809 17.9609 22.3051 17.9668 21.9304 17.9727C21.7237 17.9727 21.5159 17.9785 21.308 17.9727C20.857 17.9727 20.3966 17.9727 20.1465 17.4851C19.8963 16.9975 20.1582 16.625 20.4037 16.2455C21.4278 14.6664 22.4523 13.0884 23.4772 11.5116C25.7227 8.0561 27.9799 4.60881 30.2043 1.14036C30.368 0.808886 30.6304 0.536333 30.9553 0.360216C31.2803 0.184099 31.6518 0.113074 32.0187 0.156923C32.5327 0.199095 33.0492 0.199095 33.5631 0.156923C33.8651 0.131228 34.168 0.195637 34.4334 0.342019C34.6989 0.488401 34.9151 0.710193 35.0546 0.979388C36.9901 3.99666 38.9361 7.00531 40.8927 10.0053C42.2237 12.0537 43.552 14.1016 44.8775 16.1492C45.0063 16.3324 45.1194 16.5262 45.2157 16.7284C45.2838 16.8466 45.3204 16.9804 45.3221 17.1168C45.3238 17.2533 45.2904 17.3879 45.2253 17.5077C45.1601 17.6276 45.0653 17.7288 44.95 17.8015C44.8346 17.8743 44.7025 17.9162 44.5663 17.9233C43.5645 17.9844 42.5557 17.9621 41.5492 17.9327C41.1334 17.921 40.9009 17.5802 40.6883 17.2501C40.1516 16.4276 39.609 15.6052 39.0723 14.7745C37.0907 11.7094 35.1098 8.64358 33.1297 5.57697C33.0123 5.39132 32.8796 5.2092 32.6788 4.91312C32.4709 5.2186 32.3182 5.43127 32.1761 5.65098C29.7357 9.43314 27.2858 13.2083 24.8724 17.008C24.7184 17.3073 24.4844 17.5579 24.1963 17.7318C23.9082 17.9056 23.5775 17.996 23.2411 17.9926C23.1812 17.995 23.119 17.9926 23.0544 17.988ZM106.768 17.988C106.4 17.9609 106.031 17.968 105.661 17.9727C105.404 17.9727 105.145 17.9809 104.888 17.9727C103.802 17.9457 103.444 17.29 104.033 16.3689C105.442 14.1635 106.885 11.9722 108.312 9.77506C110.179 6.90231 112.058 4.03778 113.902 1.14975C114.064 0.817379 114.326 0.543679 114.65 0.36646C114.975 0.189241 115.347 0.117252 115.714 0.160445C116.228 0.202139 116.744 0.202139 117.258 0.160445C117.56 0.132919 117.863 0.19534 118.129 0.339832C118.395 0.484323 118.612 0.704409 118.753 0.972333C120.59 3.83803 122.45 6.68846 124.3 9.54947C125.725 11.7482 127.15 13.9469 128.575 16.1456C128.702 16.3297 128.815 16.5233 128.912 16.7249C128.978 16.8432 129.013 16.9761 129.015 17.1115C129.016 17.2469 128.984 17.3805 128.921 17.5003C128.858 17.6202 128.766 17.7223 128.653 17.7976C128.541 17.8729 128.411 17.9189 128.277 17.9316C127.988 17.9703 127.697 17.9852 127.406 17.9762C127.189 17.9762 126.971 17.9762 126.752 17.9762C126.409 17.9762 126.069 17.9762 125.727 17.9844C125.458 18.0073 125.189 17.9513 124.951 17.8234C124.714 17.6955 124.518 17.5012 124.389 17.2642C123.842 16.3912 123.264 15.5382 122.705 14.6722C120.748 11.6456 118.791 8.61773 116.833 5.58871C116.703 5.38779 116.56 5.19628 116.363 4.92134C116.178 5.1951 116.04 5.39132 115.911 5.58871C113.459 9.38967 110.995 13.1836 108.57 17.001C108.417 17.3012 108.183 17.553 107.895 17.7282C107.608 17.9035 107.277 17.9955 106.94 17.9938C106.892 17.995 106.831 17.9926 106.768 17.988ZM173.72 17.988C173.367 17.9645 173.015 17.9691 172.663 17.975C172.368 17.975 172.076 17.9832 171.779 17.975C170.804 17.9363 170.469 17.3171 170.946 16.4734C171.022 16.3371 171.113 16.2079 171.198 16.0775C174.419 11.12 177.64 6.16287 180.861 1.20615C180.947 1.07456 181.029 0.941792 181.12 0.812547C181.252 0.603275 181.437 0.433249 181.657 0.320205C181.877 0.20716 182.124 0.155233 182.371 0.169844C183.019 0.192168 183.671 0.196868 184.319 0.169844C184.599 0.150482 184.879 0.212628 185.124 0.348773C185.37 0.484919 185.57 0.689243 185.702 0.937086C186.7 2.50564 187.717 4.06128 188.728 5.62043L195.525 16.1045C195.67 16.304 195.796 16.5164 195.902 16.739C195.967 16.8588 196.001 16.9931 196 17.1293C195.999 17.2656 195.964 17.3995 195.898 17.5185C195.831 17.6376 195.736 17.7379 195.621 17.8104C195.505 17.8828 195.374 17.9249 195.238 17.9327C194.257 17.9938 193.269 17.9703 192.285 17.9515C192.095 17.927 191.914 17.8546 191.759 17.7412C191.604 17.6278 191.48 17.477 191.4 17.303C190.849 16.4593 190.296 15.6157 189.748 14.7698C187.78 11.7227 185.812 8.67531 183.846 5.62749C183.713 5.42187 183.571 5.2233 183.364 4.92251C183.165 5.21507 183.022 5.41012 182.894 5.61104C180.442 9.412 177.977 13.2047 175.552 17.0221C175.396 17.3219 175.159 17.5722 174.869 17.7449C174.578 17.9176 174.246 18.0058 173.908 17.9997C173.842 17.9938 173.782 17.9915 173.721 17.988H173.72ZM49.5223 17.968C48.8177 17.941 48.5147 17.6155 48.51 16.9023C48.4971 15.2233 48.49 13.5431 48.51 11.8653C48.5174 11.6566 48.4812 11.4486 48.4035 11.2548C48.3258 11.0609 48.2085 10.8855 48.059 10.7397C45.3422 7.82268 42.6343 4.89862 39.9355 1.96752C39.8286 1.85002 39.7182 1.74075 39.6161 1.62091C39.4955 1.50138 39.4138 1.34813 39.3819 1.18131C39.35 1.0145 39.3694 0.841938 39.4373 0.686314C39.5053 0.53069 39.6188 0.399297 39.7629 0.309421C39.9069 0.219545 40.0748 0.175391 40.2444 0.182771C41.1628 0.171021 42.0812 0.166321 42.9972 0.182771C43.2202 0.210269 43.4352 0.283529 43.6286 0.39796C43.8219 0.512391 43.9896 0.665532 44.1212 0.847794C45.4005 2.22562 46.6818 3.60187 47.965 4.97657C48.6979 5.76261 49.4331 6.54747 50.1589 7.33939C50.3056 7.52334 50.4417 7.71556 50.5664 7.91511C50.8013 7.62608 50.9187 7.46276 51.0538 7.31354C53.0127 5.19158 54.9857 3.08372 56.9259 0.942967C57.1422 0.672693 57.4215 0.459673 57.7393 0.32262C58.0571 0.185568 58.4037 0.128672 58.7486 0.156923C59.1291 0.182771 59.512 0.176897 59.8948 0.172197C60.1614 0.172197 60.4292 0.163973 60.6958 0.172197C60.9174 0.171424 61.1369 0.216214 61.3405 0.303791C61.4462 0.344543 61.5412 0.408946 61.6181 0.49207C61.6951 0.575193 61.752 0.674834 61.7845 0.78336C61.8171 0.891886 61.8243 1.00642 61.8058 1.11819C61.7873 1.22996 61.7434 1.33601 61.6776 1.42821C61.541 1.63239 61.3836 1.8218 61.2078 1.99337C58.529 4.88374 55.8548 7.77765 53.1583 10.6516C52.9863 10.8214 52.8525 11.026 52.7661 11.2517C52.6796 11.4775 52.6423 11.7191 52.6569 11.9605C52.6874 13.4609 52.6663 14.9601 52.6663 16.4605C52.6663 16.6403 52.6756 16.82 52.6592 16.9975C52.6627 17.1275 52.6391 17.2569 52.59 17.3774C52.5409 17.4979 52.4673 17.6069 52.3739 17.6975C52.2805 17.7881 52.1693 17.8582 52.0474 17.9036C51.9255 17.9489 51.7955 17.9685 51.6656 17.9609C51.3039 17.975 50.9418 17.9821 50.5793 17.9821C50.2168 17.9821 49.8645 17.9774 49.5223 17.968ZM130.816 14.5266C130.806 14.4396 130.816 14.3503 130.816 14.1741C131.082 14.1611 131.337 14.1412 131.593 14.14C136.563 14.1259 141.535 14.1122 146.508 14.0989C146.933 14.1024 147.358 14.075 147.779 14.0166C148.007 14.0018 148.221 13.9036 148.38 13.7408C148.539 13.5779 148.633 13.362 148.644 13.1342C148.666 12.9566 148.674 12.7774 148.666 12.5985C148.647 11.6515 148.29 11.2402 147.341 11.1756C145.287 11.0323 143.231 10.9171 141.174 10.7961C139.455 10.6939 137.73 10.6375 136.014 10.4859C135.236 10.4126 134.47 10.2409 133.735 9.9748C133.041 9.73881 132.422 9.32334 131.94 8.77053C131.458 8.21771 131.131 7.54723 130.992 6.82711C130.706 5.64586 130.727 4.41124 131.051 3.23999C131.201 2.59145 131.517 1.99308 131.967 1.50363C132.418 1.01418 132.989 0.650498 133.623 0.448307C134.341 0.197743 135.094 0.0582818 135.854 0.0347277C140.308 -0.00522056 144.764 -0.0107036 149.22 0.0182785C149.716 0.016238 150.208 0.117467 150.663 0.315534C151.118 0.513601 151.527 0.804173 151.863 1.1688C152.2 1.53343 152.457 1.96414 152.619 2.43357C152.78 2.903 152.842 3.40089 152.801 3.89561H151.979C146.964 3.89561 141.949 3.89561 136.933 3.89561C136.598 3.88619 136.262 3.90071 135.928 3.93908C135.688 3.94469 135.458 4.04238 135.288 4.212C135.117 4.38163 135.018 4.61028 135.011 4.85084C134.977 5.1603 134.985 5.47286 135.034 5.78023C135.061 6.00597 135.159 6.21725 135.315 6.38274C135.47 6.54824 135.675 6.65915 135.899 6.69904C136.224 6.78018 136.556 6.83093 136.891 6.85061C140.333 7.04918 143.776 7.22189 147.217 7.43809C147.976 7.48292 148.728 7.60857 149.46 7.81289C150.328 8.02195 151.112 8.49249 151.705 9.16103C152.298 9.82957 152.671 10.6639 152.775 11.5516C152.957 12.5928 152.914 13.661 152.648 14.684C152.484 15.3757 152.14 16.0116 151.651 16.5275C151.162 17.0433 150.545 17.4207 149.864 17.6214C149.004 17.8804 148.109 17.9995 147.212 17.9738C145.713 17.9738 144.214 17.9738 142.717 17.9738C140.095 17.9738 137.474 17.968 134.849 17.9868H134.817C133.837 18.0201 132.881 17.6822 132.139 17.0407C131.397 16.3993 130.925 15.5014 130.816 14.5266ZM164.529 17.9574C164.289 17.9612 164.058 17.8703 163.884 17.7045C163.711 17.5387 163.61 17.3113 163.603 17.0715C163.585 16.8707 163.581 16.669 163.589 16.4676C163.589 12.6161 163.589 8.76499 163.589 4.91429V4.0695H156.136C155.935 4.07619 155.734 4.07227 155.533 4.05775C155.419 4.05921 155.307 4.03779 155.202 3.99478C155.097 3.95176 155.002 3.88803 154.923 3.8074C154.843 3.72677 154.781 3.6309 154.739 3.52553C154.697 3.42016 154.677 3.30746 154.68 3.19417C154.651 2.4798 154.652 1.76073 154.68 1.04518C154.684 0.829077 154.768 0.622137 154.916 0.465123C155.065 0.30811 155.267 0.212406 155.482 0.196871C155.683 0.174059 155.884 0.166986 156.086 0.17572H175.229C175.385 0.17572 175.544 0.169847 175.699 0.181596C175.834 0.176874 175.97 0.200385 176.096 0.250643C176.222 0.3009 176.336 0.376806 176.431 0.473559C176.527 0.570311 176.601 0.685804 176.649 0.812717C176.698 0.939631 176.719 1.0752 176.712 1.21085C176.74 1.81243 176.736 2.42105 176.712 3.0238C176.724 3.16494 176.704 3.30693 176.655 3.43972C176.606 3.57251 176.528 3.69286 176.427 3.79227C176.327 3.89168 176.205 3.96772 176.072 4.01502C175.938 4.06231 175.796 4.07971 175.655 4.06598C175.477 4.07655 175.303 4.06598 175.119 4.06598H167.749V16.3618C167.749 16.5639 167.757 16.7648 167.749 16.9669C167.714 17.6049 167.43 17.9363 166.81 17.9633C166.437 17.9797 166.063 17.9868 165.689 17.9868C165.316 17.9868 164.915 17.9785 164.529 17.9609V17.9574ZM98.9866 17.9738C98.0541 17.9609 97.7394 17.6484 97.7382 16.7108C97.7335 13.6645 97.7335 10.6187 97.7382 7.5732V6.85296L97.6208 6.80244C97.4916 6.9916 97.3554 7.17489 97.2344 7.36993C95.2966 10.5149 93.3604 13.6606 91.4257 16.8071C91.3083 16.9975 91.1908 17.189 91.0734 17.377C90.9632 17.5603 90.8065 17.7112 90.6193 17.8144C90.432 17.9176 90.2208 17.9693 90.007 17.9645C89.3587 17.9645 88.7081 17.9645 88.0586 17.9645C87.8332 17.9673 87.6112 17.9084 87.4168 17.7941C87.2224 17.6797 87.063 17.5144 86.9559 17.3159C86.6552 16.8177 86.344 16.3254 86.0386 15.8307C84.3161 13.0281 82.5913 10.2251 80.8641 7.42164C80.7361 7.21485 80.6011 7.01392 80.4695 6.80948L80.3051 6.83534V16.2878C80.3051 16.4217 80.3051 16.5569 80.3051 16.692C80.2898 17.6895 80.0221 17.9574 79.0132 17.968C78.426 17.968 77.8494 17.9797 77.268 17.968C76.4119 17.948 76.0936 17.6319 76.0936 16.7742C76.0874 13.5486 76.0874 10.3234 76.0936 7.09852C76.0936 5.2186 76.0936 3.33868 76.0936 1.45876C76.0936 0.482381 76.4037 0.178071 77.3855 0.166321C77.7378 0.166321 78.0901 0.166321 78.4507 0.166321C79.0379 0.166321 79.6251 0.166321 80.2123 0.159271C80.5018 0.138709 80.791 0.203555 81.044 0.345779C81.297 0.488003 81.5027 0.701361 81.6357 0.959416C83.9576 4.76155 86.304 8.54841 88.6458 12.34C88.7633 12.5268 88.889 12.7066 89.0463 12.9415C89.2014 12.7066 89.3247 12.5303 89.4386 12.3458C91.7913 8.53587 94.1402 4.72395 96.4851 0.910068C96.6098 0.672245 96.8002 0.475269 97.0336 0.342584C97.267 0.209898 97.5336 0.147085 97.8016 0.16162C98.3043 0.16162 98.8093 0.16162 99.3119 0.16162C99.8146 0.16162 100.321 0.16162 100.825 0.16162C101.634 0.169844 101.964 0.494134 101.991 1.30485C102.008 1.89232 101.991 2.46922 101.991 3.052V16.3019C101.991 16.504 101.999 16.7061 101.991 16.907C102.006 17.0541 101.987 17.2026 101.936 17.3414C101.885 17.4802 101.804 17.6056 101.697 17.7083C101.591 17.811 101.463 17.8883 101.323 17.9343C101.182 17.9802 101.033 17.9938 100.887 17.9738C100.587 17.9832 100.288 17.9868 99.9884 17.9868C99.6408 17.9868 99.3131 17.9821 98.9866 17.9774V17.9738ZM1.01516 17.968C0.377448 17.9339 0.0274702 17.6214 0.0215981 17.0174C0.00515618 14.9143 0.0133771 12.8111 0.0133771 10.6292C0.32225 10.6104 0.600588 10.5787 0.878926 10.5787C5.60324 10.5787 10.3279 10.5787 15.053 10.5787C15.4108 10.5841 15.7685 10.5668 16.1241 10.527C16.3064 10.523 16.4806 10.4508 16.6123 10.3247C16.7441 10.1985 16.8238 10.0276 16.8358 9.84555C16.8477 9.8022 16.8548 9.75768 16.8569 9.71278C16.8569 8.12425 16.884 6.54042 16.8428 4.94602C16.8276 4.34444 16.541 4.1353 15.9338 4.08243C15.6896 4.06245 15.4418 4.0695 15.1951 4.0695C10.4254 4.0695 5.65648 4.0695 0.888322 4.0695H0.00515618C0.00515618 3.60775 0.00515618 3.21179 0.00515618 2.817C0.00515618 2.25538 -0.0112857 1.69493 0.0145516 1.13683C0.011419 1.0126 0.0331547 0.889012 0.0784795 0.77332C0.123804 0.657628 0.191803 0.552177 0.278472 0.463169C0.365142 0.374161 0.468733 0.303396 0.583147 0.25504C0.697562 0.206683 0.820489 0.181714 0.944694 0.181596C1.10101 0.170213 1.25782 0.167076 1.41446 0.172197C6.29614 0.172197 11.177 0.172197 16.0572 0.172197C16.4824 0.170277 16.9072 0.20052 17.3279 0.262668C18.3501 0.331828 19.3074 0.788982 20.0039 1.54068C20.7005 2.29237 21.0838 3.28185 21.0755 4.30684C21.1771 6.32021 21.1771 8.33742 21.0755 10.3508C21.0737 10.8928 20.9643 11.4292 20.7537 11.9286C20.543 12.428 20.2353 12.8806 19.8485 13.2601C19.4616 13.6396 19.0032 13.9385 18.5 14.1394C17.9967 14.3402 17.4586 14.4391 16.9168 14.4302C16.5375 14.4549 16.157 14.4608 15.7765 14.4608C12.2164 14.4608 8.65634 14.4608 5.09628 14.4608H4.21546C4.21546 15.3044 4.22133 16.0199 4.21546 16.7343C4.20606 17.6966 3.93595 17.9668 2.96353 17.9774C2.62764 17.9774 2.29176 17.9856 1.95587 17.9856C1.64113 17.9856 1.32756 17.9821 1.01516 17.968Z" fill="#41B6E6"/>
</svg>
