<svg xmlns="http://www.w3.org/2000/svg" width="60" height="60" viewBox="0 0 60 60">
  <g id="Group_50745" data-name="Group 50745" transform="translate(22995 -2573)">
    <g id="Group_50744" data-name="Group 50744" transform="translate(-23471 1692)">
      <g id="Group_50741" data-name="Group 50741">
        <g id="Group_50739" data-name="Group 50739">
          <circle id="Ellipse_170" data-name="Ellipse 170" cx="30" cy="30" r="30" transform="translate(476 881)" fill="#32a4ff"/>
        </g>
      </g>
    </g>
    <path id="instagram" d="M24.715,2H11.3C5.474,2,2,5.472,2,11.3V24.688C2,30.528,5.474,34,11.3,34H24.7c5.827,0,9.3-3.472,9.3-9.3V11.3C34.016,5.472,30.542,2,24.715,2ZM18.008,24.208A6.208,6.208,0,1,1,24.219,18,6.215,6.215,0,0,1,18.008,24.208Zm9.477-14.4a1.847,1.847,0,0,1-.336.528,1.849,1.849,0,0,1-.528.336,1.585,1.585,0,0,1-1.745-.336,1.847,1.847,0,0,1-.336-.528,1.507,1.507,0,0,1,0-1.216,1.652,1.652,0,0,1,.336-.528,1.6,1.6,0,0,1,1.441-.432.966.966,0,0,1,.3.1,1.212,1.212,0,0,1,.288.144,2.522,2.522,0,0,1,.24.192,1.652,1.652,0,0,1,.336.528,1.507,1.507,0,0,1,0,1.216Z" transform="translate(-22983 2585)" fill="#fff"/>
  </g>
</svg>
