<svg xmlns="http://www.w3.org/2000/svg" width="60" height="60" viewBox="0 0 60 60">
  <g id="Group_49904" data-name="Group 49904" transform="translate(-331 -881)">
    <circle id="Ellipse_168" data-name="Ellipse 168" cx="30" cy="30" r="30" transform="translate(331 881)" fill="#32a4ff"/>
    <g id="Group_49900" data-name="Group 49900" transform="translate(345 895)">
      <path id="Path_69399" data-name="Path 69399" d="M0,0H32.021V32.021H0Z" fill="none"/>
      <path id="Path_69400" data-name="Path 69400" d="M28.974,6.314a11.186,11.186,0,0,1-3.2.878A5.6,5.6,0,0,0,28.225,4.1a11.151,11.151,0,0,1-3.544,1.354,5.58,5.58,0,0,0-9.508,5.089,15.843,15.843,0,0,1-11.5-5.831A5.588,5.588,0,0,0,5.4,12.167a5.561,5.561,0,0,1-2.527-.7v.069A5.583,5.583,0,0,0,7.347,17.01a5.617,5.617,0,0,1-2.521.1,5.584,5.584,0,0,0,5.213,3.876,11.2,11.2,0,0,1-8.26,2.311A15.784,15.784,0,0,0,10.331,25.8,15.769,15.769,0,0,0,26.209,9.924c0-.24-.007-.483-.017-.72a11.336,11.336,0,0,0,2.785-2.889Z" transform="translate(0.595 1.233)" fill="#fff"/>
    </g>
  </g>
</svg>
