<svg xmlns="http://www.w3.org/2000/svg" width="64" height="64" viewBox="0 0 64 64">
  <g id="Group_50469" data-name="Group 50469" transform="translate(-54 -691)">
    <g id="Ellipse_31" data-name="Ellipse 31" transform="translate(54 691)" fill="#fff" stroke="#bfbfbf" stroke-width="0.5">
      <circle cx="32" cy="32" r="32" stroke="none"/>
      <circle cx="32" cy="32" r="31.75" fill="none"/>
    </g>
    <g id="Group_13661" data-name="Group 13661" transform="translate(71 708)">
      <path id="Path_68522" data-name="Path 68522" d="M0,0H30V30H0Z" fill="none"/>
      <path id="Path_68523" data-name="Path 68523" d="M12.176,5.667l-2.6,2.667H4.6v16H25.4v-16H20.424l-2.6-2.667ZM11.1,3h7.8l2.6,2.667h5.2A1.317,1.317,0,0,1,28,7V25.667A1.317,1.317,0,0,1,26.7,27H3.3A1.317,1.317,0,0,1,2,25.667V7A1.317,1.317,0,0,1,3.3,5.667H8.5ZM15,23a7.243,7.243,0,0,1-7.15-7.333A7.243,7.243,0,0,1,15,8.333a7.243,7.243,0,0,1,7.15,7.333A7.243,7.243,0,0,1,15,23Zm0-2.667a4.668,4.668,0,1,0-4.55-4.667A4.609,4.609,0,0,0,15,20.333Z" fill="#32a4ff"/>
    </g>
  </g>
</svg>
